<?xml version="1.0" encoding="utf-8"?>
<!-- Generator: Adobe Illustrator 27.0.0, SVG Export Plug-In . SVG Version: 6.00 Build 0)  -->
<svg version="1.1" id="图层_1" xmlns="http://www.w3.org/2000/svg" xmlns:xlink="http://www.w3.org/1999/xlink" x="0px" y="0px"
	 viewBox="0 0 4018 837" style="enable-background:new 0 0 4018 837;" xml:space="preserve">
<style type="text/css">
	.st0{fill:none;stroke:#64310F;stroke-width:4.5833;stroke-miterlimit:8;}
	.st1{fill-rule:evenodd;clip-rule:evenodd;fill:#FF0000;stroke:#64310F;stroke-width:4.5833;stroke-miterlimit:8;}
	.st2{fill-rule:evenodd;clip-rule:evenodd;fill:#00B050;stroke:#64310F;stroke-width:4.5833;stroke-miterlimit:8;}
	.st3{fill-rule:evenodd;clip-rule:evenodd;}
	.st4{enable-background:new    ;}
	.st5{font-family:'ArialMT';}
	.st6{font-size:28.5444px;}
	.st7{font-size:33.332px;}
	.st8{font-size:31.1841px;}
	.st9{font-size:26.5977px;}
	.st10{fill-rule:evenodd;clip-rule:evenodd;fill:#C00000;stroke:#172C51;stroke-width:4.5833;stroke-miterlimit:8;}
	.st11{fill:#4472C4;}
	.st12{font-family:'AdobeSongStd-Light-GBpc-EUC-H';}
	.st13{font-size:83px;}
	.st14{fill-rule:evenodd;clip-rule:evenodd;fill:#A020A0;stroke:#172C51;stroke-width:4.5833;stroke-miterlimit:8;}
	.st15{fill:none;stroke:#4472C4;stroke-width:10.3125;stroke-miterlimit:8;}
	.st16{fill:none;stroke:#4472C4;stroke-width:6.875;stroke-miterlimit:8;stroke-dasharray:27.5,20.625;}
	.st17{fill-rule:evenodd;clip-rule:evenodd;fill:#836967;}
	.st18{clip-path:url(#SVGID_00000160171883118273470230000018162645460444909239_);}
	.st19{clip-path:url(#SVGID_00000102537296402127115670000018336652191731744900_);}
	.st20{fill:none;stroke:#172C51;stroke-width:6.875;stroke-miterlimit:8;stroke-dasharray:6.875,6.875;}
</style>
<g transform="translate(-191 -708)">
	<path class="st0" d="M2425.5,785.5c0-17.1,13.7-31,30.5-31s30.5,13.9,30.5,31s-13.7,31-30.5,31S2425.5,802.6,2425.5,785.5z"/>
	<path class="st1" d="M2543.5,785.5c0-17.1,13.7-31,30.5-31s30.5,13.9,30.5,31s-13.7,31-30.5,31S2543.5,802.6,2543.5,785.5z"/>
	<path class="st1" d="M2661.5,785.5c0-17.1,13.7-31,30.5-31s30.5,13.9,30.5,31s-13.7,31-30.5,31S2661.5,802.6,2661.5,785.5z"/>
	<path class="st1" d="M2778.5,785.5c0-17.1,13.4-31,30-31s30,13.9,30,31s-13.4,31-30,31S2778.5,802.6,2778.5,785.5z"/>
	<path class="st1" d="M2896.5,785.5c0-17.1,13.4-31,30-31s30,13.9,30,31s-13.4,31-30,31S2896.5,802.6,2896.5,785.5z"/>
	<path class="st0" d="M2425.5,900.5c0-17.1,13.7-31,30.5-31s30.5,13.9,30.5,31s-13.7,31-30.5,31S2425.5,917.6,2425.5,900.5z"/>
	<path class="st2" d="M2542.5,900.5c0-17.1,13.7-31,30.5-31s30.5,13.9,30.5,31s-13.7,31-30.5,31S2542.5,917.6,2542.5,900.5z"/>
	<path class="st2" d="M2661.5,899.5c0-17.1,13.7-31,30.5-31s30.5,13.9,30.5,31s-13.7,31-30.5,31S2661.5,916.6,2661.5,899.5z"/>
	<path class="st2" d="M2778.5,899.5c0-17.1,13.4-31,30-31s30,13.9,30,31s-13.4,31-30,31S2778.5,916.6,2778.5,899.5z"/>
	<path class="st2" d="M2898.5,900.5c0-17.1,13.4-31,30-31s30,13.9,30,31s-13.4,31-30,31S2898.5,917.6,2898.5,900.5z"/>
	<path class="st0" d="M2425.5,1007c0-16.8,13.7-30.5,30.5-30.5s30.5,13.7,30.5,30.5c0,16.8-13.7,30.5-30.5,30.5
		S2425.5,1023.8,2425.5,1007z"/>
	<path class="st2" d="M2542.5,1007c0-16.8,13.7-30.5,30.5-30.5s30.5,13.7,30.5,30.5c0,16.8-13.7,30.5-30.5,30.5
		S2542.5,1023.8,2542.5,1007z"/>
	<path class="st2" d="M2661.5,1006c0-16.8,13.7-30.5,30.5-30.5s30.5,13.7,30.5,30.5c0,16.8-13.7,30.5-30.5,30.5
		S2661.5,1022.8,2661.5,1006z"/>
	<path class="st2" d="M2778.5,1006c0-16.8,13.4-30.5,30-30.5s30,13.7,30,30.5c0,16.8-13.4,30.5-30,30.5S2778.5,1022.8,2778.5,1006z"
		/>
	<path class="st2" d="M2898.5,1007c0-16.8,13.4-30.5,30-30.5s30,13.7,30,30.5c0,16.8-13.4,30.5-30,30.5S2898.5,1023.8,2898.5,1007z"
		/>
	<path class="st0" d="M2425.5,1113c0-16.8,13.7-30.5,30.5-30.5s30.5,13.7,30.5,30.5s-13.7,30.5-30.5,30.5S2425.5,1129.8,2425.5,1113
		z"/>
	<path class="st2" d="M2542.5,1113c0-16.8,13.7-30.5,30.5-30.5s30.5,13.7,30.5,30.5s-13.7,30.5-30.5,30.5S2542.5,1129.8,2542.5,1113
		z"/>
	<path class="st2" d="M2661.5,1112c0-16.8,13.7-30.5,30.5-30.5s30.5,13.7,30.5,30.5s-13.7,30.5-30.5,30.5S2661.5,1128.8,2661.5,1112
		z"/>
	<path class="st2" d="M2778.5,1112c0-16.8,13.4-30.5,30-30.5s30,13.7,30,30.5s-13.4,30.5-30,30.5S2778.5,1128.8,2778.5,1112z"/>
	<path class="st2" d="M2898.5,1113c0-16.8,13.4-30.5,30-30.5s30,13.7,30,30.5s-13.4,30.5-30,30.5S2898.5,1129.8,2898.5,1113z"/>
	<path class="st0" d="M2425.5,1224.5c0-17.1,13.7-31,30.5-31s30.5,13.9,30.5,31s-13.7,31-30.5,31S2425.5,1241.6,2425.5,1224.5z"/>
	<path class="st2" d="M2542.5,1224.5c0-17.1,13.7-31,30.5-31s30.5,13.9,30.5,31s-13.7,31-30.5,31S2542.5,1241.6,2542.5,1224.5z"/>
	<path class="st2" d="M2661.5,1224c0-16.8,13.7-30.5,30.5-30.5s30.5,13.7,30.5,30.5s-13.7,30.5-30.5,30.5S2661.5,1240.8,2661.5,1224
		z"/>
	<path class="st2" d="M2778.5,1224c0-16.8,13.4-30.5,30-30.5s30,13.7,30,30.5s-13.4,30.5-30,30.5S2778.5,1240.8,2778.5,1224z"/>
	<path class="st2" d="M2898.5,1225c0-16.8,13.4-30.5,30-30.5s30,13.7,30,30.5s-13.4,30.5-30,30.5S2898.5,1241.8,2898.5,1225z"/>
	<path class="st3" d="M337.3,1408.9l-12.7,22.4h13.9l-0.6-11.5c-0.1-1.6-0.1-3.5-0.2-5.9c0-2.3-0.1-4.1-0.1-5.1H337.3z
		 M337.5,1401.4h5.4l2.6,39.7c0.1,1.9,0.3,3.3,0.6,4.4c0.3,1.1,0.7,1.8,1.3,2.3c0.5,0.5,1.3,0.8,2.3,1l-0.4,1.8h-14.8l0.4-1.8
		c1.4-0.1,2.4-0.7,3.1-1.6c0.7-1,1-2.7,1-5.1c0-0.9,0-1.9-0.1-3l-0.2-4.6H323l-2,3.5c-0.9,1.6-1.6,3-2,4.2c-0.4,1.2-0.6,2.2-0.6,3.1
		c0,2,1.2,3.2,3.6,3.6l-0.4,1.8H307l0.4-1.8c0.7-0.1,1.4-0.4,2.1-0.9c0.7-0.5,1.3-1.2,2.1-2.2c0.7-1,1.8-2.6,3.1-4.9L337.5,1401.4z"
		/>
	<path class="st3" d="M594.1,1441.7c-1,0-2,0.2-2.8,0.7c-0.9,0.4-1.7,1-2.4,1.8c-0.7,0.8-1.4,1.6-1.9,2.7c-0.6,1-1,2.1-1.4,3.2
		c-0.4,1.1-0.7,2.3-0.9,3.5c-0.2,1.2-0.3,2.4-0.3,3.5c0,1.9,0.3,3.2,0.8,4.2c0.5,0.9,1.4,1.4,2.5,1.4c0.8,0,1.7-0.3,2.6-0.8
		c1-0.5,1.9-1.3,2.8-2.3c0.9-1,1.7-2.2,2.5-3.7c0.8-1.5,1.3-3.1,1.7-4.9c0.2-0.9,0.4-1.9,0.5-2.8c0.2-0.9,0.2-1.8,0.2-2.6
		c0-1.4-0.3-2.4-0.9-3C596.5,1442,595.5,1441.7,594.1,1441.7z M565.3,1441.7c-0.9,0-1.9,0.2-2.8,0.7c-0.9,0.5-1.8,1.1-2.6,2
		c-0.8,0.9-1.6,1.9-2.2,3.1c-0.7,1.2-1.2,2.6-1.7,4.1c2.2,0,4.1-0.2,5.7-0.5c1.6-0.3,2.9-0.8,3.9-1.4c1-0.6,1.8-1.2,2.2-2
		c0.5-0.8,0.7-1.6,0.7-2.6c0-1.1-0.3-1.9-0.8-2.5C567.1,1442,566.3,1441.7,565.3,1441.7z M469.1,1441.7c-1,0-2,0.2-2.8,0.7
		s-1.7,1.1-2.4,1.8c-0.7,0.8-1.4,1.7-1.9,2.7c-0.6,1-1,2.1-1.4,3.2s-0.7,2.3-0.9,3.5c-0.2,1.2-0.3,2.3-0.3,3.4
		c0,1.9,0.3,3.2,0.8,4.2c0.5,0.9,1.4,1.4,2.5,1.4c0.6,0,1.2-0.1,1.7-0.3c0.5-0.2,1.1-0.5,1.7-1c1.5-1.2,2.8-2.6,3.9-4.3
		c1.1-1.7,1.9-3.7,2.4-6c0.2-1.1,0.4-2,0.6-2.9s0.2-1.7,0.2-2.5c0-1.4-0.3-2.4-1-3C471.5,1442,470.5,1441.7,469.1,1441.7z
		 M372.3,1441.7c-0.9,0-1.9,0.2-2.8,0.7c-0.9,0.5-1.8,1.1-2.6,2c-0.8,0.9-1.6,1.9-2.2,3.1c-0.7,1.2-1.2,2.6-1.7,4.1
		c2.2,0,4.1-0.2,5.7-0.5c1.6-0.3,2.9-0.8,3.9-1.4c1-0.6,1.8-1.2,2.2-2c0.5-0.8,0.7-1.6,0.7-2.6c0-1.1-0.3-1.9-0.8-2.5
		S373.3,1441.7,372.3,1441.7z M566.4,1439.1c2.2,0,3.9,0.5,5,1.4c1.1,1,1.7,2.3,1.7,4.1c0,6.2-5.9,9.4-17.7,9.4
		c-0.1,0.4-0.2,0.9-0.2,1.5c-0.1,0.5-0.1,1.1-0.1,1.7c0,1.9,0.4,3.2,1.2,4.1c0.8,0.9,2,1.3,3.6,1.3c0.8,0,1.6-0.1,2.4-0.3
		c0.8-0.2,1.5-0.5,2.2-0.8c0.7-0.4,1.5-0.9,2.2-1.5c0.7-0.6,1.5-1.3,2.3-2.1l1.9,2.1c-2,2-4,3.5-6,4.5c-2,1-4.1,1.5-6.4,1.5
		c-1.3,0-2.5-0.2-3.6-0.6c-1-0.4-1.9-1-2.6-1.8s-1.3-1.7-1.6-2.8c-0.4-1.1-0.6-2.4-0.6-3.8c0-1,0.1-2,0.3-3.1
		c0.2-1.1,0.4-2.1,0.8-3.2c0.4-1.1,0.8-2.1,1.3-3.1c0.5-1,1.2-2,1.9-2.8c1.4-1.8,3.2-3.2,5.2-4.2
		C561.8,1439.7,564,1439.1,566.4,1439.1z M539,1439.1c1.3,0,2.4,0.1,3.5,0.2c1.1,0.1,2.2,0.3,3.4,0.7l-1.4,6.3h-3.1
		c0-0.9-0.1-1.7-0.2-2.2c-0.1-0.6-0.3-1.1-0.5-1.4c-0.2-0.3-0.6-0.6-1-0.7c-0.4-0.1-0.9-0.2-1.5-0.2c-0.9,0-1.8,0.2-2.7,0.6
		c-0.9,0.4-1.6,1-2.4,1.7c-0.7,0.7-1.4,1.6-2,2.6c-0.6,1-1.1,2.1-1.6,3.2c-0.4,1.1-0.8,2.3-1,3.5c-0.2,1.2-0.3,2.5-0.3,3.7
		c0,1.8,0.4,3.2,1.1,4.2c0.7,1,1.8,1.4,3.3,1.4c0.8,0,1.6-0.1,2.3-0.2c0.7-0.1,1.4-0.4,2-0.7c0.7-0.3,1.3-0.8,2-1.4
		c0.7-0.6,1.5-1.2,2.3-2.1c0.3,0.3,0.6,0.7,0.9,1c0.3,0.3,0.6,0.7,0.9,1c-1.9,1.9-3.7,3.4-5.6,4.3c-1.9,0.9-3.9,1.4-6,1.4
		c-2.7,0-4.7-0.8-6.1-2.3c-1.4-1.6-2.1-3.8-2.1-6.7c0-1.6,0.2-3.2,0.5-4.7s0.9-2.9,1.6-4.2c0.7-1.3,1.5-2.5,2.4-3.6
		c0.9-1.1,2-2,3.2-2.8c1.2-0.8,2.4-1.4,3.8-1.8C536.1,1439.4,537.5,1439.1,539,1439.1z M494.3,1439.1c1.3,0,2.3,0.4,3,1.3
		c0.7,0.8,1,1.9,1,3.3c0,0.3,0,0.7-0.1,1.1c-0.1,0.4-0.2,0.8-0.3,1.1l0.4,0.1c1.7-2.3,3.3-4,5-5.2c1.6-1.1,3.3-1.7,5.1-1.7
		c1.8,0,3.2,0.5,4.1,1.5c0.9,1,1.4,2.4,1.4,4.1c0,0.5-0.1,1.3-0.2,2.2c-0.2,1-0.4,2-0.6,3.1c-0.2,1.1-0.5,2.3-0.8,3.5
		c-0.3,1.2-0.5,2.3-0.8,3.3c-0.2,1-0.4,1.9-0.6,2.6c-0.2,0.7-0.2,1.2-0.2,1.3c0,0.7,0.1,1.1,0.4,1.4c0.2,0.3,0.6,0.4,1.2,0.4
		c0.3,0,0.7-0.1,1-0.2c0.3-0.1,0.7-0.3,1-0.6c0.3-0.3,0.7-0.6,1.1-1c0.4-0.4,0.9-0.9,1.4-1.5l1.8,1.7c-0.8,0.9-1.6,1.6-2.3,2.2
		c-0.7,0.6-1.4,1.1-2.1,1.5c-0.7,0.4-1.3,0.7-2,0.9c-0.7,0.2-1.4,0.3-2.1,0.3c-0.6,0-1.2-0.1-1.7-0.4s-1-0.6-1.4-1
		c-0.4-0.4-0.7-0.9-0.9-1.5c-0.2-0.6-0.3-1.2-0.3-1.9c0-0.7,0.1-1.5,0.2-2.4c0.1-0.9,0.4-1.9,0.7-3c0.3-1.1,0.6-2.2,0.9-3.2
		c0.3-1,0.5-2,0.7-2.8c0.2-0.9,0.4-1.7,0.5-2.3c0.1-0.7,0.2-1.2,0.2-1.7c0-1.1-0.2-1.9-0.6-2.4c-0.4-0.5-1.1-0.8-2-0.8
		c-0.5,0-1.1,0.1-1.7,0.4c-0.6,0.3-1.2,0.6-1.8,1.1c-0.6,0.5-1.2,1-1.8,1.7c-0.6,0.6-1.1,1.3-1.6,2.1c-0.5,0.7-0.9,1.5-1.3,2.3
		c-0.4,0.8-0.6,1.6-0.8,2.4l-2.9,13h-5.1l3.9-16.9c0.2-0.9,0.4-1.7,0.5-2.4c0.1-0.7,0.2-1.3,0.2-1.7c0-1.3-0.5-1.9-1.5-1.9
		c-0.3,0-0.6,0.1-0.9,0.2s-0.7,0.3-1,0.6c-0.4,0.3-0.7,0.6-1.2,1c-0.4,0.4-0.9,0.9-1.4,1.4l-1.8-1.7c0.9-0.9,1.7-1.6,2.4-2.3
		s1.4-1.1,2-1.6c0.6-0.4,1.3-0.7,1.9-0.9C492.9,1439.2,493.6,1439.1,494.3,1439.1z M468.7,1439.1c1.4,0,2.6,0.2,3.6,0.5
		s2,0.8,2.9,1.3l2.5-1.8l2.1,0.5l-3.9,17c-0.2,1-0.4,1.8-0.5,2.4c-0.1,0.6-0.1,1.2-0.1,1.7c0,0.7,0.1,1.1,0.4,1.4
		c0.3,0.3,0.7,0.4,1.2,0.4c0.3,0,0.6-0.1,0.9-0.2c0.3-0.1,0.6-0.3,1-0.6c0.4-0.3,0.7-0.6,1.2-1c0.4-0.4,0.9-0.9,1.4-1.5
		c0.3,0.3,0.6,0.6,0.9,0.9c0.3,0.3,0.6,0.6,0.9,0.8c-0.9,0.9-1.6,1.6-2.4,2.3c-0.7,0.6-1.4,1.1-2.1,1.6c-0.7,0.4-1.3,0.7-2,0.9
		c-0.6,0.2-1.3,0.3-2,0.3c-1.2,0-2.2-0.4-2.9-1.2c-0.7-0.8-1-1.9-1-3.3c0-0.8,0.1-1.5,0.4-2.2l-0.4-0.2c-0.9,1.2-1.7,2.3-2.6,3.1
		s-1.6,1.6-2.5,2.1c-0.8,0.6-1.6,1-2.5,1.2s-1.7,0.4-2.6,0.4c-2.1,0-3.6-0.7-4.8-2.2c-1.1-1.5-1.7-3.6-1.7-6.4
		c0-1.7,0.2-3.3,0.5-4.8c0.4-1.5,0.9-3,1.5-4.4c0.6-1.3,1.4-2.6,2.3-3.7c0.9-1.1,1.9-2.1,3-2.9c1.1-0.8,2.2-1.4,3.4-1.8
		C466.1,1439.4,467.4,1439.1,468.7,1439.1z M392.3,1439.1c1.3,0,2.3,0.4,3,1.3c0.7,0.8,1,1.9,1,3.3c0,0.3,0,0.7-0.1,1.1
		c-0.1,0.4-0.2,0.8-0.3,1.1l0.4,0.1c1.7-2.3,3.3-4,5-5.2c1.6-1.1,3.3-1.7,5.1-1.7c1.8,0,3.2,0.5,4.1,1.5c0.9,1,1.4,2.4,1.4,4.1
		c0,0.5-0.1,1.3-0.2,2.2c-0.2,1-0.4,2-0.6,3.1c-0.2,1.1-0.5,2.3-0.8,3.5c-0.3,1.2-0.5,2.3-0.8,3.3c-0.2,1-0.4,1.9-0.6,2.6
		c-0.2,0.7-0.2,1.2-0.2,1.3c0,0.7,0.1,1.1,0.4,1.4c0.2,0.3,0.6,0.4,1.2,0.4c0.3,0,0.7-0.1,1-0.2c0.3-0.1,0.7-0.3,1-0.6
		c0.3-0.3,0.7-0.6,1.1-1c0.4-0.4,0.9-0.9,1.4-1.5l1.8,1.7c-0.8,0.9-1.6,1.6-2.3,2.2c-0.7,0.6-1.4,1.1-2.1,1.5
		c-0.7,0.4-1.3,0.7-2,0.9c-0.7,0.2-1.4,0.3-2.1,0.3c-0.6,0-1.2-0.1-1.7-0.4s-1-0.6-1.4-1c-0.4-0.4-0.7-0.9-0.9-1.5
		c-0.2-0.6-0.3-1.2-0.3-1.9c0-0.7,0.1-1.5,0.2-2.4c0.1-0.9,0.4-1.9,0.7-3c0.3-1.1,0.6-2.2,0.9-3.2c0.3-1,0.5-2,0.7-2.8
		c0.2-0.9,0.4-1.7,0.5-2.3c0.1-0.7,0.2-1.2,0.2-1.7c0-1.1-0.2-1.9-0.6-2.4c-0.4-0.5-1.1-0.8-2-0.8c-0.5,0-1.1,0.1-1.7,0.4
		c-0.6,0.3-1.2,0.6-1.8,1.1c-0.6,0.5-1.2,1-1.8,1.7c-0.6,0.6-1.1,1.3-1.6,2.1c-0.5,0.7-0.9,1.5-1.3,2.3c-0.4,0.8-0.6,1.6-0.8,2.4
		l-2.9,13h-5.1l3.9-16.9c0.2-0.9,0.4-1.7,0.5-2.4c0.1-0.7,0.2-1.3,0.2-1.7c0-1.3-0.5-1.9-1.5-1.9c-0.3,0-0.6,0.1-0.9,0.2
		s-0.7,0.3-1,0.6c-0.4,0.3-0.7,0.6-1.2,1c-0.4,0.4-0.9,0.9-1.4,1.4l-1.8-1.7c0.9-0.9,1.7-1.6,2.4-2.3s1.4-1.1,2-1.6
		c0.6-0.4,1.3-0.7,1.9-0.9C390.9,1439.2,391.6,1439.1,392.3,1439.1z M373.4,1439.1c2.2,0,3.9,0.5,5,1.4c1.1,1,1.7,2.3,1.7,4.1
		c0,6.2-5.9,9.4-17.7,9.4c-0.1,0.4-0.2,0.9-0.2,1.5c-0.1,0.5-0.1,1.1-0.1,1.7c0,1.9,0.4,3.2,1.2,4.1c0.8,0.9,2,1.3,3.6,1.3
		c0.8,0,1.6-0.1,2.4-0.3c0.8-0.2,1.5-0.5,2.2-0.8c0.7-0.4,1.5-0.9,2.2-1.5c0.7-0.6,1.5-1.3,2.3-2.1l1.9,2.1c-2,2-4,3.5-6,4.5
		c-2,1-4.1,1.5-6.4,1.5c-1.3,0-2.5-0.2-3.6-0.6c-1-0.4-1.9-1-2.6-1.8s-1.3-1.7-1.6-2.8c-0.4-1.1-0.6-2.4-0.6-3.8c0-1,0.1-2,0.3-3.1
		c0.2-1.1,0.4-2.1,0.8-3.2c0.4-1.1,0.8-2.1,1.3-3.1s1.2-2,1.9-2.8c1.5-1.8,3.2-3.2,5.2-4.2C368.8,1439.7,371,1439.1,373.4,1439.1z
		 M605.5,1430.2h1.3l-6,26.4c-0.2,1-0.4,1.8-0.5,2.4c-0.1,0.6-0.1,1.2-0.1,1.6c0,0.7,0.1,1.1,0.4,1.4c0.3,0.3,0.7,0.4,1.2,0.4
		c0.3,0,0.6-0.1,0.9-0.2c0.3-0.1,0.6-0.3,1-0.6c0.4-0.3,0.7-0.6,1.2-1c0.4-0.4,0.9-0.9,1.4-1.5c0.3,0.3,0.6,0.6,0.9,0.9
		c0.3,0.3,0.6,0.6,0.9,0.8c-0.9,0.9-1.6,1.6-2.4,2.3c-0.7,0.6-1.4,1.1-2.1,1.6c-0.7,0.4-1.3,0.7-2,0.9c-0.6,0.2-1.3,0.3-2,0.3
		c-1.2,0-2.2-0.4-2.9-1.2c-0.7-0.8-1-1.9-1-3.3c0-0.8,0.1-1.5,0.4-2.2l-0.4-0.2c-0.9,1.2-1.7,2.3-2.6,3.1s-1.6,1.6-2.5,2.1
		c-0.8,0.6-1.6,1-2.5,1.2s-1.7,0.4-2.6,0.4c-2.1,0-3.6-0.7-4.8-2.2c-1.1-1.5-1.7-3.6-1.7-6.4c0-1.7,0.2-3.3,0.5-4.8
		c0.4-1.5,0.9-3,1.5-4.4c0.6-1.3,1.4-2.6,2.3-3.7c0.9-1.1,1.9-2.1,2.9-2.9c1.1-0.8,2.2-1.4,3.4-1.8c1.2-0.4,2.5-0.7,3.8-0.7
		c1.1,0,2.2,0.1,3.1,0.3c0.9,0.2,1.9,0.7,2.7,1.3c0.3-1.1,0.5-2,0.7-2.8c0.2-0.8,0.3-1.5,0.4-2.1c0.1-0.7,0.2-1.2,0.2-1.6
		c0-0.4,0-0.7-0.1-0.9c-0.1-0.2-0.3-0.4-0.5-0.6c-0.2-0.2-0.6-0.3-1-0.3c-0.4-0.1-1-0.1-1.7-0.2l0.3-1.8L605.5,1430.2z
		 M431.8,1430.2h1.9l-3.5,14.6l0.4,0.1c0.8-1,1.7-1.9,2.5-2.6c0.8-0.7,1.6-1.3,2.3-1.8c0.8-0.5,1.5-0.8,2.2-1.1
		c0.7-0.2,1.5-0.3,2.3-0.3c1.9,0,3.2,0.5,4.2,1.5c0.9,1,1.4,2.4,1.4,4.1c0,0.5-0.1,1.2-0.2,1.9c-0.1,0.8-0.3,1.7-0.5,2.7l-1.8,7.2
		c-0.2,0.7-0.3,1.2-0.4,1.6c-0.1,0.4-0.2,0.8-0.2,1.1c-0.1,0.3-0.1,0.5-0.1,0.8c0,0.2,0,0.4,0,0.6c0,0.7,0.1,1.1,0.4,1.4
		c0.2,0.3,0.6,0.4,1.2,0.4c0.3,0,0.6-0.1,0.9-0.2c0.3-0.1,0.6-0.3,1-0.6c0.4-0.3,0.7-0.6,1.2-1c0.4-0.4,0.9-0.9,1.4-1.5
		c0.3,0.3,0.6,0.6,0.9,0.9c0.3,0.3,0.6,0.6,0.9,0.8c-0.9,0.9-1.7,1.7-2.4,2.3c-0.7,0.6-1.4,1.2-2.1,1.5c-0.7,0.4-1.3,0.7-1.9,0.9
		c-0.6,0.2-1.3,0.3-2,0.3c-0.6,0-1.2-0.1-1.7-0.4s-1-0.6-1.4-1c-0.4-0.4-0.7-0.9-0.9-1.5c-0.2-0.6-0.3-1.2-0.3-1.9
		c0-0.7,0.1-1.5,0.2-2.4c0.2-0.9,0.3-1.8,0.6-2.8c0.2-1,0.5-2,0.7-3s0.5-1.9,0.7-2.8c0.2-0.9,0.4-1.7,0.6-2.4
		c0.2-0.7,0.2-1.3,0.2-1.7c0-0.5,0-0.9-0.1-1.3c-0.1-0.4-0.2-0.8-0.4-1.1c-0.2-0.3-0.5-0.6-0.8-0.8s-0.8-0.3-1.3-0.3
		c-0.8,0-1.7,0.3-2.7,1c-1,0.6-1.9,1.5-2.8,2.5c-0.9,1-1.6,2.2-2.3,3.4c-0.7,1.3-1.2,2.5-1.4,3.8c-0.4,2.1-0.9,4.1-1.3,6.2
		c-0.4,2-0.8,4.1-1.3,6.2h-5l6.1-27.8c0.2-0.9,0.3-1.6,0.4-2.2c0.1-0.6,0.1-1,0.1-1.4c0-0.3-0.1-0.6-0.2-0.8
		c-0.1-0.2-0.3-0.4-0.5-0.6c-0.2-0.1-0.6-0.2-1-0.3c-0.4-0.1-1-0.1-1.6-0.1l0.4-1.8L431.8,1430.2z"/>
	<path class="st3" d="M660.7,1408.6h14.6v5h-14.6c-2.4,0-4.3,0.1-5.7,0.4c-1.5,0.3-2.7,0.7-3.7,1.3c-1,0.6-1.9,1.4-2.7,2.5
		c-0.8,1.1-1.4,2.4-1.9,3.9c-0.5,1.6-0.7,3.3-0.9,5.3h29.4v5h-29.4c0.1,2.2,0.4,4.2,1,5.9s1.3,3.2,2.4,4.4c1.1,1.2,2.4,2.1,4.1,2.7
		c1.7,0.6,4,0.9,6.9,0.9h15.1v4.9h-15.2c-2.3,0-4.3-0.1-6.1-0.4c-1.7-0.3-3.3-0.8-4.6-1.4c-1.4-0.6-2.7-1.6-3.9-2.9
		c-1.2-1.3-2.2-2.7-3-4.3c-0.8-1.6-1.3-3.3-1.7-5.3s-0.6-4.1-0.6-6.4c0-3.8,0.4-6.9,1.1-9.3c0.7-2.5,2-4.6,3.7-6.6
		c1.7-1.9,3.8-3.3,6.2-4.1S656.9,1408.6,660.7,1408.6z"/>
	<g class="st4">
	</g>
	<path class="st3" d="M727,1405.1c-1.3,0-2.6,0.1-4,0.2l-4.6,20.6h4.2c3.4,0,6.2-0.5,8.2-1.4c2-0.9,3.6-2.4,4.7-4.6
		c1.2-2.1,1.7-4.4,1.7-6.8c0-1-0.1-1.9-0.3-2.7c-0.2-0.8-0.4-1.4-0.7-2c-0.3-0.5-0.7-1-1.2-1.4c-0.5-0.4-1.1-0.8-1.8-1
		c-0.7-0.3-1.5-0.5-2.5-0.6C729.9,1405.2,728.6,1405.1,727,1405.1z M712.7,1401.9h15.9c2.5,0,4.6,0.1,6.2,0.4c1.6,0.3,3,0.7,4.1,1.3
		c1.1,0.6,2.1,1.4,2.8,2.3c0.8,0.9,1.3,2,1.7,3.2c0.4,1.2,0.6,2.4,0.6,3.8c0,3.7-1.1,6.8-3.4,9.3c-2.2,2.6-5.5,4.5-9.9,5.8v0.4
		c1.1,0.8,2.1,1.9,2.8,3.1c0.7,1.2,1.3,2.8,1.7,5l0.8,4.1c0.3,1.3,0.6,2.5,0.9,3.5c0.3,1.1,0.7,1.9,1.2,2.5c0.5,0.6,1,1.1,1.6,1.4
		c0.6,0.3,1.4,0.6,2.5,0.7l-0.4,1.8h-9.9c-0.8-2.1-1.4-4.6-2-7.6l-1.6-7.6c-0.3-1.3-0.6-2.4-0.9-3.3c-0.4-0.9-0.8-1.6-1.3-2.1
		c-0.5-0.5-1.1-0.8-1.8-1c-0.7-0.2-1.5-0.2-2.5-0.2h-4.1l-2.5,11.3c-0.2,0.9-0.4,1.7-0.4,2.2c-0.1,0.5-0.2,1.1-0.2,1.7
		c-0.1,0.6-0.1,1.1-0.1,1.6c0,0.7,0.1,1.3,0.4,1.7c0.2,0.4,0.6,0.7,1.1,0.9c0.5,0.2,1.3,0.3,2.5,0.4l-0.4,1.8h-14.7l0.4-1.8
		c0.9-0.1,1.6-0.4,2-0.7c0.5-0.3,0.8-0.8,1.1-1.3c0.3-0.6,0.6-1.3,0.9-2.1c0.3-0.8,0.7-2.4,1.2-4.8l6.1-27.4
		c0.5-2.4,0.8-4.2,0.8-5.6c0-1.2-0.3-2-0.8-2.4c-0.5-0.4-1.4-0.7-2.7-0.8L712.7,1401.9z"/>
	<path class="st3" d="M757.1,1390.2H768l-0.3,1.5c-0.4,0.1-0.7,0.2-1,0.3c-0.3,0.1-0.5,0.2-0.7,0.3c-0.2,0.1-0.4,0.3-0.6,0.6
		c-0.2,0.2-0.3,0.6-0.5,1c-0.1,0.4-0.3,0.9-0.5,1.5c-0.2,0.6-0.4,1.4-0.6,2.3l-1.7,7.6h0.7c0.4,0,0.8,0,1.1-0.1
		c0.3-0.1,0.7-0.2,1-0.3c0.3-0.1,0.6-0.3,1-0.5c0.3-0.2,0.7-0.5,1.2-0.8c1.8-1.4,3.3-2.7,4.5-3.8c1.2-1.1,2.2-2.1,2.9-2.9
		c0.8-0.8,1.3-1.6,1.6-2.2c0.3-0.6,0.5-1.1,0.5-1.5c0-0.4-0.2-0.7-0.5-1c-0.3-0.2-0.9-0.4-1.6-0.4l0.3-1.6h11.8l-0.4,1.6
		c-0.4,0-0.8,0.1-1.1,0.2c-0.4,0.1-0.8,0.3-1.2,0.7c-0.5,0.3-1,0.8-1.7,1.3c-0.6,0.6-1.5,1.3-2.4,2.2l-10.1,9.1l5.8,12.2
		c0.4,1,0.8,1.7,1.2,2.2c0.3,0.6,0.7,1,1,1.3c0.3,0.3,0.7,0.6,1.2,0.7c0.4,0.2,1,0.3,1.6,0.4l-0.4,1.6h-10.7l0.4-1.6
		c0.5,0,0.8-0.1,1.1-0.3c0.2-0.2,0.4-0.4,0.4-0.7c0-0.2,0-0.4-0.1-0.6c0-0.2-0.1-0.4-0.2-0.7s-0.2-0.5-0.3-0.9
		c-0.1-0.3-0.3-0.7-0.5-1.2l-3.5-7.4c-0.3-0.7-0.6-1.2-0.8-1.6c-0.2-0.4-0.5-0.7-0.7-0.9c-0.2-0.2-0.5-0.3-0.9-0.4
		c-0.3-0.1-0.7-0.1-1.2-0.1h-1.4c-0.1,0.7-0.3,1.5-0.5,2.3c-0.2,0.8-0.4,1.6-0.6,2.5c-0.2,0.8-0.4,1.7-0.5,2.5
		c-0.2,0.8-0.3,1.6-0.5,2.3c-0.1,0.7-0.2,1.3-0.3,1.9c-0.1,0.5-0.1,1-0.1,1.3c0,0.7,0.2,1.2,0.6,1.5c0.4,0.3,1.1,0.5,2.2,0.6
		l-0.4,1.6h-10.9l0.3-1.6c0.5-0.1,1-0.2,1.3-0.3c0.3-0.1,0.6-0.4,0.9-0.7c0.3-0.4,0.5-0.9,0.7-1.7s0.5-1.8,0.8-3.2l4.2-18.9
		c0.2-0.8,0.3-1.4,0.4-2c0.1-0.6,0.1-1.1,0.1-1.5c0-0.8-0.2-1.3-0.6-1.6c-0.4-0.3-1.1-0.5-2.2-0.5L757.1,1390.2z"/>
	<path class="st3" d="M796.3,1394.4l11.7,11.7l11.7-11.7l2.4,2.4l-11.6,11.8l11.6,11.8l-2.6,2.6l-11.6-11.8l-12,11.7l-2.4-2.4
		l11.8-11.8l-11.8-11.6L796.3,1394.4z"/>
	<g class="st4">
	</g>
	<path class="st3" d="M994.2,1376.6c5.4,1.4,9.5,5.1,12.4,11c2.9,5.9,4.4,12.9,4.4,21s-1.5,15.1-4.4,21c-2.9,5.9-7.1,9.6-12.4,11
		l-0.6-2.1c4.2-1.6,7.3-5,9.5-10.3c2.1-5.3,3.2-11.8,3.2-19.6c0-7.8-1.1-14.4-3.2-19.6c-2.2-5.3-5.3-8.7-9.5-10.3L994.2,1376.6z
		 M848.9,1376.6l0.6,2.1c-4.2,1.6-7.3,5-9.5,10.3s-3.2,11.8-3.2,19.6c0,7.8,1.1,14.3,3.2,19.6c2.1,5.3,5.3,8.7,9.5,10.3l-0.6,2.1
		c-5.4-1.4-9.5-5.1-12.4-11c-2.9-5.9-4.4-12.9-4.4-21s1.5-15.1,4.4-21C839.4,1381.7,843.5,1378,848.9,1376.6z"/>
	<path class="st3" d="M868.9,1390.4h1.6c0,0.9-0.1,1.8-0.1,2.5c0,0.8,0,1.5,0,2.2c0,0.7,0,1.4,0,2.1v19.7c0,0.5,0,1,0.1,1.4
		c0,0.4,0.1,0.7,0.2,1s0.2,0.5,0.3,0.7c0.1,0.2,0.3,0.4,0.5,0.5c0.2,0.2,0.5,0.4,0.8,0.5c0.3,0.1,0.8,0.2,1.3,0.3
		c0.5,0.1,1.2,0.1,1.9,0.2c0.8,0,1.7,0.1,2.7,0.1v2.2h-20.5v-2.2c1,0,1.9-0.1,2.6-0.1c0.7,0,1.3-0.1,1.8-0.2
		c0.5-0.1,0.9-0.2,1.2-0.3c0.3-0.1,0.6-0.2,0.8-0.3c0.2-0.2,0.4-0.3,0.6-0.5c0.2-0.2,0.3-0.4,0.4-0.7c0.1-0.3,0.2-0.6,0.2-1
		c0.1-0.4,0.1-0.9,0.1-1.5v-18.6c0-0.7-0.1-1.2-0.4-1.4c-0.3-0.3-0.6-0.4-1.1-0.4c-0.5,0-1.3,0.3-2.4,0.8c-1.1,0.6-2.4,1.4-4.1,2.5
		c-0.2-0.4-0.4-0.8-0.6-1.2c-0.2-0.4-0.4-0.8-0.6-1.2c2.1-1.2,4.3-2.3,6.4-3.5C864.6,1392.7,866.8,1391.6,868.9,1390.4z"/>
	<g class="st4">
	</g>
	<path class="st3" d="M899.6,1393h4.2v13.6h12.8v4h-12.8v13.6h-4.2v-13.6h-12.8v-4h12.8V1393z"/>
	<g class="st4">
	</g>
	<path class="st3" d="M929.4,1390.2h8.9c0.8,2.1,1.6,4.3,2.5,6.5c0.9,2.2,1.7,4.4,2.5,6.5c0.8,2.2,1.6,4.3,2.4,6.4
		c0.8,2.1,1.5,4.2,2.1,6.2h0.3c0.2-1.1,0.4-2.4,0.7-3.9c0.3-1.5,0.6-3.1,1-4.7c0.3-1.2,0.6-2.5,0.9-3.8c0.3-1.3,0.6-2.5,0.8-3.7
		c0.3-1.2,0.5-2.3,0.6-3.3c0.2-1,0.2-1.8,0.2-2.5c0-0.8-0.2-1.3-0.6-1.6c-0.4-0.3-1.1-0.5-2.2-0.5l0.4-1.6h9.6l-0.3,1.5
		c-0.6,0.2-1.1,0.3-1.4,0.5c-0.3,0.1-0.6,0.4-0.9,0.8c-0.2,0.4-0.5,0.9-0.7,1.6c-0.2,0.7-0.5,1.7-0.8,3.1l-5.8,26.1H946
		c-0.9-2.3-1.8-4.7-2.8-7.1c-1-2.4-1.9-4.8-2.8-7.1c-0.9-2.4-1.8-4.8-2.7-7.1c-0.8-2.4-1.6-4.7-2.3-6.9H935
		c-0.1,0.5-0.2,1.2-0.3,1.9c-0.1,0.7-0.3,1.5-0.4,2.3c-0.1,0.8-0.3,1.7-0.5,2.5s-0.3,1.7-0.5,2.6c-0.2,0.7-0.3,1.4-0.6,2.3
		s-0.4,1.8-0.7,2.8s-0.5,2-0.7,3c-0.2,1-0.4,2-0.6,2.9s-0.3,1.8-0.5,2.5s-0.2,1.4-0.2,1.8c0,0.7,0.2,1.2,0.6,1.5
		c0.4,0.3,1.1,0.5,2.1,0.6l-0.3,1.6H923l0.3-1.6c0.5-0.1,0.9-0.2,1.3-0.3c0.3-0.1,0.6-0.4,0.9-0.7c0.3-0.4,0.5-0.9,0.7-1.7
		c0.2-0.7,0.5-1.8,0.8-3.1l4.2-18.9c0.2-0.7,0.3-1.3,0.3-1.9c0.1-0.6,0.1-1.1,0.1-1.6c0-0.8-0.2-1.3-0.6-1.6
		c-0.4-0.3-1.1-0.5-2.2-0.5L929.4,1390.2z"/>
	<path class="st3" d="M976.4,1377.6c1.6,0,3,0.2,4.1,0.5c1.1,0.4,1.9,0.8,2.6,1.4c0.6,0.6,1.1,1.2,1.4,2c0.3,0.8,0.4,1.6,0.4,2.4
		c0,1-0.2,2-0.6,2.9c-0.4,0.9-1.1,1.8-2,2.9c-0.9,1-2.6,2.7-5.1,4.9c-2.6,2.3-4.5,4.4-5.7,6.1h7.8c0.7,0,1.3,0,1.7-0.1
		c0.4-0.1,0.7-0.2,0.9-0.3c0.2-0.1,0.4-0.3,0.6-0.6c0.2-0.2,0.4-0.7,0.7-1.5h2.2l-0.5,6h-18.4v-1.2c0.7-1.5,1.7-3,2.9-4.5
		c1.2-1.5,2.6-3,4.3-4.6c1.9-1.9,3.3-3.3,4.1-4.2c0.8-0.9,1.4-1.8,1.8-2.7c0.4-0.9,0.6-1.7,0.6-2.6c0-1.4-0.4-2.5-1.2-3.4
		c-0.8-0.8-2-1.2-3.5-1.2c-1.3,0-2.4,0.3-3.3,1c-0.9,0.7-1.6,1.7-2.1,3.1h-3v-4.2c1.9-0.8,3.6-1.3,5.1-1.6
		C973.8,1377.8,975.2,1377.6,976.4,1377.6z"/>
	<g class="st4">
	</g>
	<path class="st3" d="M1023.2,1394.4l11.7,11.7l11.7-11.7l2.4,2.4l-11.6,11.8l11.6,11.8l-2.6,2.6l-11.6-11.8l-12,11.7l-2.4-2.4
		l11.8-11.8l-11.8-11.6L1023.2,1394.4z"/>
	<g class="st4">
		<text transform="matrix(1 0 0 1 1020.56 1419.4)" class="st5 st6">×</text>
	</g>
	<path class="st3" d="M1221.1,1376.6c5.4,1.4,9.5,5.1,12.4,11c2.9,5.9,4.4,12.9,4.4,21s-1.5,15.1-4.4,21c-2.9,5.9-7.1,9.6-12.4,11
		l-0.6-2.1c4.2-1.6,7.3-5,9.5-10.3c2.2-5.3,3.2-11.8,3.2-19.6c0-7.8-1.1-14.4-3.2-19.6c-2.1-5.3-5.3-8.7-9.5-10.3L1221.1,1376.6z
		 M1075.8,1376.6l0.6,2.1c-4.2,1.6-7.3,5-9.5,10.3c-2.2,5.3-3.2,11.8-3.2,19.6c0,7.8,1.1,14.3,3.2,19.6c2.1,5.3,5.3,8.7,9.5,10.3
		l-0.6,2.1c-5.4-1.4-9.5-5.1-12.5-11c-2.9-5.9-4.4-12.9-4.4-21s1.5-15.1,4.4-21C1066.2,1381.7,1070.4,1378,1075.8,1376.6z"/>
	<path class="st3" d="M1095.8,1390.4h1.6c0,0.9-0.1,1.8-0.1,2.5c0,0.8,0,1.5,0,2.2c0,0.7,0,1.4,0,2.1v19.7c0,0.5,0,1,0.1,1.4
		c0,0.4,0.1,0.7,0.2,1c0.1,0.3,0.2,0.5,0.3,0.7c0.1,0.2,0.3,0.4,0.4,0.5c0.2,0.2,0.5,0.4,0.8,0.5c0.3,0.1,0.8,0.2,1.3,0.3
		c0.5,0.1,1.2,0.1,1.9,0.2c0.8,0,1.7,0.1,2.7,0.1v2.2h-20.5v-2.2c1,0,1.9-0.1,2.6-0.1c0.7,0,1.3-0.1,1.8-0.2
		c0.5-0.1,0.9-0.2,1.2-0.3c0.3-0.1,0.6-0.2,0.8-0.3c0.2-0.2,0.4-0.3,0.6-0.5c0.2-0.2,0.3-0.4,0.4-0.7c0.1-0.3,0.2-0.6,0.2-1
		c0.1-0.4,0.1-0.9,0.1-1.5v-18.6c0-0.7-0.1-1.2-0.4-1.4c-0.3-0.3-0.6-0.4-1.1-0.4c-0.5,0-1.3,0.3-2.4,0.8c-1.1,0.6-2.4,1.4-4.1,2.5
		c-0.2-0.4-0.4-0.8-0.6-1.2c-0.2-0.4-0.4-0.8-0.6-1.2c2.1-1.2,4.3-2.3,6.4-3.5C1091.5,1392.7,1093.6,1391.6,1095.8,1390.4z"/>
	<g class="st4">
		<text transform="matrix(1 0 0 1 1083.0601 1419.58)" class="st5 st7">1</text>
	</g>
	<path class="st3" d="M1126.4,1393h4.2v13.6h12.8v4h-12.8v13.6h-4.2v-13.6h-12.8v-4h12.8V1393z"/>
	<g class="st4">
		<text transform="matrix(1 0 0 1 1113.64 1420.28)" class="st5 st8">+</text>
	</g>
	<path class="st3" d="M1156.3,1390.2h8.9c0.8,2.1,1.6,4.3,2.5,6.5c0.9,2.2,1.7,4.4,2.5,6.5c0.8,2.2,1.6,4.3,2.4,6.4
		c0.8,2.1,1.5,4.2,2.1,6.2h0.3c0.2-1.1,0.4-2.4,0.7-3.9c0.3-1.5,0.6-3.1,1-4.7c0.3-1.2,0.6-2.5,0.9-3.8c0.3-1.3,0.6-2.5,0.8-3.7
		c0.3-1.2,0.5-2.3,0.6-3.3c0.2-1,0.2-1.8,0.2-2.5c0-0.8-0.2-1.3-0.6-1.6c-0.4-0.3-1.1-0.5-2.2-0.5l0.4-1.6h9.6l-0.3,1.5
		c-0.6,0.2-1.1,0.3-1.4,0.5c-0.4,0.1-0.6,0.4-0.9,0.8s-0.5,0.9-0.7,1.6c-0.2,0.7-0.5,1.7-0.8,3.1l-5.8,26.1h-3.9
		c-0.9-2.3-1.8-4.7-2.8-7.1c-1-2.4-1.9-4.8-2.8-7.1c-0.9-2.4-1.8-4.8-2.7-7.1c-0.8-2.4-1.6-4.7-2.3-6.9h-0.3
		c-0.1,0.5-0.2,1.2-0.3,1.9c-0.1,0.7-0.2,1.5-0.4,2.3c-0.1,0.8-0.3,1.7-0.5,2.5c-0.2,0.9-0.3,1.7-0.5,2.6c-0.2,0.7-0.3,1.4-0.6,2.3
		c-0.2,0.9-0.4,1.8-0.7,2.8c-0.2,1-0.5,2-0.7,3c-0.2,1-0.4,2-0.6,2.9c-0.2,0.9-0.3,1.8-0.5,2.5s-0.2,1.4-0.2,1.8
		c0,0.7,0.2,1.2,0.6,1.5c0.4,0.3,1.1,0.5,2.1,0.6l-0.3,1.6h-9.7l0.3-1.6c0.5-0.1,1-0.2,1.3-0.3c0.3-0.1,0.7-0.4,0.9-0.7
		c0.2-0.4,0.5-0.9,0.7-1.7c0.2-0.7,0.5-1.8,0.8-3.1l4.2-18.9c0.2-0.7,0.3-1.3,0.4-1.9c0.1-0.6,0.1-1.1,0.1-1.6
		c0-0.8-0.2-1.3-0.6-1.6c-0.4-0.3-1.1-0.5-2.2-0.5L1156.3,1390.2z"/>
	<path class="st3" d="M1203.2,1377.6c1.7,0,3,0.2,4.1,0.5c1.1,0.4,1.9,0.8,2.6,1.4c0.6,0.6,1.1,1.2,1.3,2c0.3,0.8,0.4,1.6,0.4,2.4
		c0,1-0.2,2-0.6,2.9c-0.4,0.9-1.1,1.8-2,2.9c-0.9,1-2.6,2.7-5.1,4.9c-2.6,2.3-4.5,4.4-5.7,6.1h7.8c0.7,0,1.3,0,1.7-0.1
		c0.4-0.1,0.7-0.2,0.9-0.3c0.2-0.1,0.4-0.3,0.6-0.6c0.2-0.2,0.4-0.7,0.7-1.5h2.2l-0.4,6h-18.4v-1.2c0.7-1.5,1.7-3,2.9-4.5
		c1.2-1.5,2.6-3,4.2-4.6c1.9-1.9,3.3-3.3,4.2-4.2c0.8-0.9,1.4-1.8,1.8-2.7c0.4-0.9,0.6-1.7,0.6-2.6c0-1.4-0.4-2.5-1.2-3.4
		c-0.8-0.8-2-1.2-3.5-1.2c-1.3,0-2.4,0.3-3.3,1c-0.9,0.7-1.6,1.7-2.1,3.1h-3v-4.2c1.9-0.8,3.6-1.3,5.1-1.6
		C1200.6,1377.8,1202,1377.6,1203.2,1377.6z"/>
	<g class="st4">
		<text transform="matrix(1 0 0 1 1193.25 1400.87)" class="st5 st9">2</text>
	</g>
	<path class="st10" d="M557.5,851.3c0-25.3,20.5-45.8,45.8-45.8h183.3c25.3,0,45.8,20.5,45.8,45.8v184.3c0,25.3-20.5,45.8-45.8,45.8
		H603.3c-25.3,0-45.8-20.5-45.8-45.8V851.3z"/>
	<path class="st10" d="M581.5,899.5c0-25.4,20.6-46,46-46h184c25.4,0,46,20.6,46,46v184c0,25.4-20.6,46-46,46h-184
		c-25.4,0-46-20.6-46-46V899.5z"/>
	<path class="st10" d="M614.5,939.5c0-25.4,20.6-46,46-46h184c25.4,0,46,20.6,46,46v184c0,25.4-20.6,46-46,46h-184
		c-25.4,0-46-20.6-46-46V939.5z"/>
	<path class="st10" d="M639.5,987.3c0-25.3,20.5-45.8,45.8-45.8h183.3c25.3,0,45.8,20.5,45.8,45.8v184.3c0,25.3-20.5,45.8-45.8,45.8
		H685.3c-25.3,0-45.8-20.5-45.8-45.8V987.3z"/>
	<path class="st11" d="M1123,1025.1l320.5,0v13.8l-320.5,0V1025.1z M1436.6,1011.4l41.2,20.6l-41.2,20.6V1011.4z"/>
	<text transform="matrix(1 0 0 1 1073.67 963)" class="st12 st13">第</text>
	<text transform="matrix(1 0 0 1 1156.17 963)" class="st5 st13">0</text>
	<text transform="matrix(1 0 0 1 1204.29 963)" class="st12 st13">维度平均</text>
	<path class="st14" d="M1613.5,904.3c0-25.3,20.5-45.8,45.8-45.8h183.3c25.3,0,45.8,20.5,45.8,45.8v183.3
		c0,25.3-20.5,45.8-45.8,45.8h-183.3c-25.3,0-45.8-20.5-45.8-45.8V904.3z"/>
	<path class="st15" d="M1888,875l422.8-108"/>
	<path class="st15" d="M1865,1133l466.8,133"/>
	<path class="st16" d="M2456.5,708.5v600.4"/>
	<path class="st16" d="M2380.5,783.5h646.8"/>
	<path class="st3" d="M1439.8,1407.5l-12.7,22.5h13.9l-0.6-11.5c-0.1-1.6-0.1-3.5-0.2-5.9c0-2.3-0.1-4.1-0.1-5.1H1439.8z M1440,1400
		h5.4l2.6,39.8c0.1,1.9,0.3,3.3,0.6,4.4c0.3,1.1,0.7,1.8,1.3,2.3c0.5,0.5,1.3,0.8,2.3,1l-0.4,1.8h-14.8l0.4-1.8
		c1.4-0.1,2.5-0.7,3.1-1.6c0.7-1,1-2.7,1-5.1c0-0.9,0-1.9-0.1-3l-0.2-4.6h-15.7l-2,3.5c-0.9,1.6-1.6,3.1-2,4.2
		c-0.4,1.2-0.6,2.2-0.6,3.1c0,2,1.2,3.2,3.6,3.6l-0.4,1.8h-14.6l0.4-1.8c0.7-0.1,1.4-0.4,2.1-0.9c0.7-0.5,1.4-1.2,2.1-2.2
		c0.7-1,1.8-2.6,3.1-4.9L1440,1400z"/>
	<path class="st3" d="M1592.2,1440.3c-1,0-2,0.2-2.8,0.7c-0.9,0.4-1.7,1.1-2.4,1.8c-0.7,0.8-1.4,1.7-1.9,2.7c-0.6,1-1.1,2.1-1.4,3.2
		c-0.4,1.2-0.7,2.3-0.9,3.5c-0.2,1.2-0.3,2.4-0.3,3.5c0,1.9,0.3,3.2,0.8,4.2c0.5,0.9,1.4,1.4,2.5,1.4c0.8,0,1.7-0.3,2.6-0.8
		c1-0.5,1.9-1.3,2.8-2.3c0.9-1,1.7-2.2,2.5-3.7c0.8-1.4,1.3-3.1,1.7-4.9c0.2-0.9,0.4-1.9,0.5-2.8c0.2-0.9,0.2-1.8,0.2-2.6
		c0-1.4-0.3-2.4-0.9-3S1593.5,1440.3,1592.2,1440.3z M1563.3,1440.3c-0.9,0-1.9,0.2-2.8,0.7c-0.9,0.5-1.8,1.1-2.6,2
		c-0.8,0.8-1.6,1.9-2.2,3.1c-0.7,1.2-1.2,2.6-1.7,4.1c2.2,0,4.1-0.2,5.7-0.5c1.6-0.3,2.9-0.8,3.9-1.3c1-0.6,1.8-1.2,2.2-2
		c0.5-0.8,0.7-1.6,0.7-2.6c0-1.1-0.3-1.9-0.8-2.5C1565.1,1440.7,1564.4,1440.3,1563.3,1440.3z M1564.4,1437.8c2.2,0,3.9,0.5,5,1.4
		c1.2,1,1.7,2.3,1.7,4.1c0,6.2-5.9,9.4-17.7,9.4c-0.1,0.5-0.2,0.9-0.2,1.5c-0.1,0.5-0.1,1.1-0.1,1.7c0,1.9,0.4,3.3,1.2,4.1
		c0.8,0.9,2,1.3,3.6,1.3c0.8,0,1.6-0.1,2.4-0.3c0.8-0.2,1.5-0.5,2.2-0.8c0.7-0.4,1.5-0.9,2.2-1.5c0.7-0.6,1.5-1.3,2.3-2.1l1.9,2.1
		c-2,2-4,3.5-6,4.5c-2,1-4.1,1.5-6.4,1.5c-1.3,0-2.5-0.2-3.6-0.6c-1-0.4-1.9-1-2.6-1.8c-0.7-0.8-1.3-1.7-1.6-2.8
		c-0.4-1.1-0.6-2.4-0.6-3.8c0-1,0.1-2,0.3-3.1c0.2-1.1,0.4-2.1,0.8-3.2c0.4-1.1,0.8-2.1,1.3-3.1c0.5-1,1.2-1.9,1.9-2.8
		c1.4-1.8,3.2-3.2,5.2-4.2C1559.8,1438.3,1562,1437.8,1564.4,1437.8z M1534.3,1437.8c1.7,0,3.2,0.1,4.6,0.3c1.4,0.2,2.8,0.5,4.1,0.9
		l-1.2,5.8h-2.3c-0.2-1.5-0.7-2.7-1.5-3.4c-0.8-0.7-2.1-1.1-3.9-1.1c-0.7,0-1.4,0.1-2,0.3c-0.6,0.2-1.1,0.5-1.6,0.8
		c-0.4,0.3-0.8,0.7-1,1.2c-0.2,0.5-0.4,1-0.4,1.5c0,0.5,0.1,1,0.2,1.4c0.1,0.4,0.4,0.8,0.7,1.2c0.3,0.4,0.8,0.8,1.5,1.2
		c0.7,0.4,1.5,0.9,2.5,1.5c1.1,0.6,2,1.2,2.8,1.7c0.7,0.6,1.3,1.1,1.8,1.7c0.4,0.6,0.7,1.2,0.9,1.8c0.2,0.7,0.2,1.4,0.2,2.2
		c0,1.2-0.2,2.3-0.8,3.3s-1.2,1.8-2.1,2.5c-0.9,0.7-2,1.2-3.2,1.6c-1.2,0.4-2.5,0.6-4,0.6c-1.6,0-3.2-0.1-4.7-0.3
		c-1.5-0.2-3.2-0.6-4.9-1.1l1.3-5.9h2.2c0.1,1.6,0.6,2.8,1.5,3.6c0.9,0.8,2.3,1.2,4.3,1.2c1.7,0,3.1-0.4,4.1-1.1
		c1-0.8,1.5-1.8,1.5-3.1c0-0.6-0.1-1.1-0.2-1.6c-0.1-0.4-0.4-0.9-0.7-1.3c-0.4-0.4-0.8-0.8-1.4-1.2c-0.6-0.4-1.4-0.9-2.4-1.5
		c-1-0.6-1.9-1.1-2.6-1.7c-0.7-0.6-1.3-1.1-1.8-1.7c-0.5-0.6-0.8-1.2-1-1.8c-0.2-0.6-0.3-1.3-0.3-2c0-1.1,0.2-2.1,0.7-3
		c0.4-0.9,1.1-1.7,1.9-2.4c0.8-0.7,1.9-1.2,3.1-1.6C1531.5,1438,1532.8,1437.8,1534.3,1437.8z M1493.5,1437.8c1.2,0,2.2,0.4,3,1.2
		c0.7,0.8,1.1,2,1.1,3.4c0,0.8-0.1,1.6-0.2,2.5c-0.1,0.9-0.4,2-0.7,3.1c-0.7,2.4-1.2,4.4-1.6,6.2c-0.4,1.8-0.6,3.1-0.6,3.9
		c0,1,0.2,1.8,0.6,2.3c0.4,0.5,1.1,0.8,1.9,0.8c0.8,0,1.7-0.3,2.6-0.9c0.9-0.6,1.8-1.4,2.7-2.3c0.8-0.9,1.6-2,2.3-3.2
		c0.7-1.2,1.2-2.4,1.5-3.5l2.8-13h5.1l-4,16.9c-0.2,0.9-0.3,1.7-0.4,2.4c-0.1,0.7-0.1,1.3-0.1,1.8c0,0.7,0.1,1.1,0.4,1.4
		c0.2,0.3,0.6,0.4,1.2,0.4c0.3,0,0.7-0.1,1-0.2c0.3-0.1,0.6-0.3,1-0.6c0.4-0.3,0.7-0.6,1.2-1c0.4-0.4,0.9-0.9,1.4-1.5l1.8,1.7
		c-0.9,0.9-1.7,1.6-2.4,2.3c-0.7,0.6-1.4,1.2-2.1,1.6c-0.7,0.4-1.3,0.7-1.9,0.9c-0.7,0.2-1.3,0.3-2,0.3c-1.2,0-2.2-0.4-2.9-1.2
		c-0.7-0.8-1-1.9-1-3.3c0-0.4,0-0.7,0.1-1.1c0.1-0.4,0.1-0.7,0.3-1.1l-0.3-0.1c-1.7,2.3-3.4,3.9-5,5.1s-3.3,1.7-5,1.7
		c-1.8,0-3.2-0.5-4.1-1.5c-0.9-1-1.4-2.4-1.4-4.2c0-0.5,0.1-1.1,0.2-1.9c0.2-0.8,0.4-1.8,0.6-2.8s0.5-2.1,0.8-3.2
		c0.3-1.1,0.5-2.2,0.8-3.2c0.2-1,0.5-2,0.6-2.8c0.2-0.8,0.2-1.5,0.2-2c0-1.3-0.5-1.9-1.6-1.9c-0.3,0-0.6,0.1-0.9,0.2
		c-0.3,0.1-0.7,0.3-1,0.6c-0.4,0.2-0.7,0.6-1.2,1c-0.4,0.4-0.9,0.9-1.4,1.4l-1.8-1.7c0.9-0.9,1.8-1.7,2.5-2.3
		c0.7-0.6,1.4-1.2,2.1-1.5c0.7-0.4,1.3-0.7,1.9-0.8C1492,1437.9,1492.7,1437.8,1493.5,1437.8z M1603.5,1428.9h1.3l-6,26.4
		c-0.2,1-0.4,1.8-0.5,2.4c-0.1,0.6-0.1,1.1-0.1,1.6c0,0.7,0.1,1.1,0.4,1.4c0.3,0.3,0.6,0.4,1.1,0.4c0.3,0,0.6-0.1,0.9-0.2
		c0.3-0.1,0.6-0.3,1-0.6s0.7-0.6,1.2-1c0.4-0.4,0.9-0.9,1.4-1.5c0.3,0.3,0.6,0.6,0.9,0.9c0.3,0.3,0.6,0.6,0.9,0.8
		c-0.9,0.9-1.7,1.6-2.4,2.3c-0.7,0.6-1.4,1.2-2.1,1.6c-0.7,0.4-1.3,0.7-2,0.9c-0.6,0.2-1.3,0.3-2,0.3c-1.2,0-2.2-0.4-2.9-1.2
		c-0.7-0.8-1-1.9-1-3.3c0-0.8,0.1-1.5,0.4-2.2l-0.4-0.2c-0.9,1.2-1.7,2.3-2.6,3.1c-0.8,0.9-1.6,1.6-2.5,2.1c-0.8,0.6-1.6,1-2.5,1.2
		c-0.8,0.3-1.7,0.4-2.6,0.4c-2.1,0-3.6-0.7-4.8-2.2c-1.1-1.5-1.7-3.6-1.7-6.4c0-1.7,0.2-3.3,0.5-4.8c0.3-1.5,0.8-3,1.5-4.3
		c0.6-1.3,1.4-2.6,2.3-3.7c0.9-1.1,1.9-2.1,3-2.9c1.1-0.8,2.2-1.4,3.4-1.9c1.2-0.4,2.5-0.7,3.8-0.7c1.1,0,2.2,0.1,3.1,0.3
		c1,0.2,1.9,0.7,2.7,1.3c0.3-1.1,0.5-2,0.7-2.8c0.2-0.8,0.3-1.5,0.4-2.1c0.1-0.6,0.2-1.2,0.2-1.6c0-0.4,0-0.7-0.1-0.9
		c-0.1-0.2-0.3-0.4-0.5-0.6c-0.2-0.2-0.6-0.3-1-0.3c-0.4-0.1-1-0.1-1.7-0.2l0.3-1.8L1603.5,1428.9z M1478,1428c1,0,1.8,0,2.5,0.2
		c0.7,0.1,1.4,0.2,2.1,0.3l-1.1,4.8h-2.6c-0.1-1-0.4-1.7-0.9-2.2c-0.5-0.5-1.1-0.7-1.9-0.7c-0.9,0-1.6,0.2-2.3,0.6
		c-0.6,0.4-1.1,1-1.6,1.8c-0.4,0.8-0.8,1.7-1.2,2.8c-0.3,1.1-0.6,2-0.7,2.7h7.2l-0.6,2.9h-7.2l-4.7,22.2c-0.8,3.8-2.1,6.6-3.9,8.4
		c-1.8,1.8-4.2,2.7-7.3,2.7c-0.8,0-1.4-0.1-1.7-0.2c0.1-0.4,0.2-0.9,0.3-1.3c0.1-0.5,0.2-0.9,0.3-1.3c0.1,0,0.2,0.1,0.4,0.1
		c0.2,0,0.5,0,0.8,0c0.7,0,1.3-0.1,1.8-0.3c0.6-0.2,1.1-0.6,1.5-1.2c0.5-0.6,0.9-1.3,1.3-2.3c0.4-1,0.8-2.2,1.1-3.8l5.2-23h-4.5
		l0.5-2c0.9,0,1.7-0.1,2.3-0.2c0.6-0.1,1-0.2,1.4-0.5c0.4-0.2,0.7-0.6,0.9-1.2c1-3.2,2.5-5.5,4.5-7.1
		C1472.1,1428.8,1474.8,1428,1478,1428z"/>
	<path class="st3" d="M1659.1,1407.3h14.6v4.9H1659c-2.3,0-4.3,0.1-5.7,0.4c-1.5,0.3-2.7,0.7-3.7,1.3c-1,0.6-1.9,1.4-2.7,2.5
		c-0.8,1.1-1.4,2.4-1.9,3.9c-0.4,1.5-0.7,3.3-0.9,5.3h29.4v5h-29.4c0.1,2.2,0.4,4.2,1,5.9c0.5,1.7,1.3,3.2,2.4,4.4
		c1.1,1.2,2.4,2.1,4.1,2.7c1.7,0.6,4,0.9,6.9,0.9h15.1v5h-15.2c-2.3,0-4.3-0.2-6.1-0.4c-1.7-0.3-3.3-0.8-4.6-1.4
		c-1.4-0.6-2.7-1.6-3.9-2.9c-1.2-1.3-2.2-2.7-3-4.3c-0.8-1.6-1.3-3.3-1.7-5.3c-0.4-2-0.6-4.1-0.6-6.4c0-3.8,0.4-6.9,1.1-9.3
		c0.7-2.5,2-4.6,3.7-6.6c1.7-1.9,3.8-3.3,6.2-4.1C1652.1,1407.7,1655.2,1407.3,1659.1,1407.3z"/>
	<g class="st4">
	</g>
	<path class="st3" d="M1725.3,1403.7c-1.3,0-2.6,0.1-4,0.1l-4.6,20.6h4.2c3.4,0,6.2-0.5,8.2-1.4s3.6-2.4,4.7-4.6
		c1.2-2.1,1.8-4.4,1.8-6.9c0-1-0.1-1.9-0.3-2.7c-0.2-0.8-0.4-1.5-0.8-2c-0.3-0.5-0.7-1-1.2-1.4c-0.5-0.4-1.1-0.8-1.8-1.1
		c-0.7-0.3-1.5-0.5-2.5-0.6C1728.2,1403.8,1726.9,1403.7,1725.3,1403.7z M1711,1400.6h15.9c2.5,0,4.6,0.2,6.2,0.5
		c1.6,0.3,2.9,0.7,4.1,1.3c1.1,0.6,2.1,1.4,2.8,2.3c0.8,0.9,1.3,2,1.7,3.2c0.4,1.2,0.6,2.4,0.6,3.8c0,3.7-1.1,6.8-3.3,9.3
		c-2.2,2.6-5.5,4.5-9.9,5.8v0.4c1.1,0.9,2.1,1.9,2.8,3.1c0.7,1.2,1.3,2.8,1.7,4.9l0.8,4.1c0.3,1.3,0.6,2.5,0.9,3.5
		c0.3,1,0.7,1.9,1.2,2.5c0.5,0.6,1,1.1,1.6,1.4c0.6,0.3,1.4,0.6,2.6,0.8l-0.4,1.8h-9.9c-0.8-2.1-1.4-4.6-2-7.6l-1.6-7.6
		c-0.3-1.3-0.6-2.4-0.9-3.3c-0.4-0.9-0.8-1.6-1.3-2.1s-1.1-0.8-1.8-1c-0.7-0.2-1.5-0.2-2.5-0.2h-4.1l-2.5,11.3
		c-0.2,0.9-0.4,1.7-0.4,2.2c-0.1,0.6-0.2,1.1-0.2,1.7c-0.1,0.6-0.1,1.1-0.1,1.6c0,0.7,0.1,1.3,0.4,1.7c0.2,0.4,0.6,0.7,1.1,0.9
		c0.5,0.2,1.3,0.3,2.5,0.4l-0.4,1.8h-14.6l0.4-1.8c0.9-0.1,1.6-0.4,2-0.7c0.5-0.3,0.8-0.8,1.1-1.3c0.3-0.6,0.6-1.3,0.8-2.1
		s0.7-2.4,1.2-4.8l6.1-27.4c0.5-2.4,0.8-4.2,0.8-5.6c0-1.2-0.3-2-0.8-2.4c-0.5-0.4-1.4-0.7-2.7-0.8L1711,1400.6z"/>
	<path class="st17" d="M1915.6,1375.3c5.4,1.4,9.5,5.1,12.4,11c2.9,5.9,4.4,12.9,4.4,21s-1.5,15.1-4.4,21c-2.9,5.9-7.1,9.6-12.4,11
		l-0.6-2.1c4.2-1.6,7.3-5,9.5-10.3s3.2-11.8,3.2-19.6c0-7.8-1.1-14.4-3.2-19.6c-2.2-5.3-5.3-8.7-9.5-10.3L1915.6,1375.3z
		 M1770.2,1375.3l0.7,2.1c-4.2,1.6-7.3,5-9.5,10.3c-2.2,5.3-3.2,11.8-3.2,19.6c0,7.8,1.1,14.3,3.2,19.6c2.1,5.3,5.3,8.7,9.5,10.3
		l-0.7,2.1c-5.4-1.4-9.5-5.1-12.4-11c-2.9-5.9-4.4-12.9-4.4-21s1.5-15.1,4.4-21C1760.7,1380.3,1764.9,1376.7,1770.2,1375.3z"/>
	<path class="st3" d="M1790.3,1389.1h1.6c0,0.9-0.1,1.8-0.1,2.5c0,0.8,0,1.5,0,2.2c0,0.7,0,1.4,0,2.1v19.7c0,0.5,0,1,0.1,1.4
		c0,0.4,0.1,0.7,0.2,1c0.1,0.3,0.2,0.5,0.3,0.7c0.1,0.2,0.3,0.3,0.5,0.5c0.2,0.2,0.5,0.4,0.8,0.5c0.3,0.1,0.8,0.2,1.3,0.3
		c0.5,0.1,1.2,0.1,1.9,0.2c0.8,0,1.6,0.1,2.7,0.1v2.2H1779v-2.2c1,0,1.9-0.1,2.6-0.1c0.7,0,1.3-0.1,1.8-0.2c0.5-0.1,0.9-0.2,1.2-0.3
		c0.3-0.1,0.6-0.2,0.8-0.3c0.2-0.2,0.4-0.3,0.6-0.5c0.2-0.2,0.3-0.4,0.4-0.7c0.1-0.3,0.2-0.6,0.2-1c0.1-0.4,0.1-0.9,0.1-1.5V1397
		c0-0.7-0.1-1.2-0.4-1.4c-0.3-0.3-0.6-0.4-1.1-0.4c-0.5,0-1.3,0.3-2.4,0.8c-1.1,0.6-2.4,1.4-4.1,2.5c-0.2-0.4-0.4-0.8-0.6-1.2
		c-0.2-0.4-0.4-0.8-0.6-1.2c2.1-1.2,4.3-2.3,6.3-3.5C1786,1391.4,1788.1,1390.2,1790.3,1389.1z"/>
	<g class="st4">
	</g>
	<path class="st3" d="M1820.9,1391.6h4.2v13.6h12.8v4h-12.8v13.6h-4.2v-13.6h-12.8v-4h12.8V1391.6z"/>
	<g class="st4">
	</g>
	<path class="st3" d="M1850.8,1388.8h8.9c0.8,2.2,1.6,4.3,2.5,6.5c0.9,2.2,1.7,4.4,2.5,6.5c0.8,2.2,1.6,4.3,2.4,6.4
		c0.8,2.1,1.5,4.2,2.1,6.2h0.3c0.2-1.1,0.4-2.4,0.7-3.9c0.3-1.5,0.6-3.1,1-4.7c0.3-1.2,0.6-2.5,0.9-3.8c0.3-1.3,0.6-2.5,0.8-3.7
		c0.3-1.2,0.5-2.3,0.6-3.3c0.2-1,0.2-1.8,0.2-2.5c0-0.8-0.2-1.3-0.6-1.6c-0.4-0.3-1.1-0.5-2.2-0.5l0.4-1.6h9.6l-0.3,1.6
		c-0.6,0.2-1.1,0.3-1.4,0.4c-0.3,0.1-0.6,0.4-0.9,0.8s-0.5,0.9-0.7,1.6c-0.2,0.7-0.5,1.7-0.8,3.1l-5.8,26.1h-3.9
		c-0.9-2.3-1.8-4.7-2.8-7.1c-0.9-2.4-1.9-4.8-2.8-7.1c-0.9-2.4-1.8-4.8-2.6-7.1c-0.9-2.3-1.6-4.7-2.3-6.9h-0.3
		c-0.1,0.5-0.2,1.2-0.3,1.9c-0.1,0.7-0.2,1.5-0.4,2.3c-0.1,0.8-0.3,1.7-0.5,2.5c-0.2,0.9-0.3,1.7-0.5,2.6c-0.2,0.7-0.3,1.4-0.6,2.3
		c-0.2,0.9-0.4,1.8-0.7,2.8c-0.2,1-0.4,2-0.7,3c-0.2,1-0.4,2-0.6,2.9c-0.2,0.9-0.3,1.8-0.5,2.5c-0.1,0.8-0.2,1.3-0.2,1.8
		c0,0.7,0.2,1.2,0.6,1.5c0.4,0.3,1.1,0.5,2.1,0.6l-0.3,1.6h-9.7l0.3-1.6c0.5-0.1,1-0.2,1.3-0.3c0.3-0.1,0.6-0.4,0.9-0.7
		s0.5-0.9,0.7-1.7s0.5-1.8,0.8-3.1l4.2-18.9c0.2-0.7,0.3-1.3,0.3-1.9c0.1-0.6,0.1-1.1,0.1-1.6c0-0.8-0.2-1.3-0.6-1.6
		c-0.4-0.3-1.1-0.5-2.2-0.5L1850.8,1388.8z"/>
	<path class="st3" d="M1897.7,1376.2c1.7,0,3,0.2,4.1,0.5c1.1,0.4,2,0.8,2.6,1.4c0.7,0.6,1.1,1.2,1.4,2c0.2,0.8,0.4,1.6,0.4,2.4
		c0,1-0.2,2-0.6,2.9c-0.4,0.9-1.1,1.8-2,2.9c-0.9,1-2.6,2.7-5.1,4.9c-2.6,2.4-4.5,4.4-5.7,6.1h7.8c0.7,0,1.3,0,1.7-0.1
		c0.4-0.1,0.7-0.2,0.9-0.3c0.2-0.2,0.4-0.3,0.6-0.6c0.2-0.2,0.4-0.7,0.7-1.5h2.2l-0.4,6.1h-18.4v-1.2c0.7-1.5,1.7-3,2.9-4.5
		c1.2-1.5,2.6-3,4.3-4.6c1.9-1.9,3.3-3.3,4.1-4.2c0.8-0.9,1.4-1.8,1.8-2.7c0.4-0.8,0.6-1.7,0.6-2.6c0-1.4-0.4-2.5-1.2-3.4
		c-0.8-0.8-2-1.2-3.5-1.2c-1.3,0-2.4,0.3-3.3,1c-0.9,0.7-1.6,1.7-2.1,3h-3v-4.2c1.9-0.8,3.6-1.3,5.1-1.6
		C1895.1,1376.4,1896.5,1376.2,1897.7,1376.2z"/>
	<g class="st4">
	</g>
	<path class="st3" d="M1944.6,1393.1l11.7,11.7l11.7-11.7l2.4,2.4l-11.6,11.8l11.6,11.7l-2.6,2.6l-11.6-11.8l-12,11.7l-2.4-2.4
		l11.8-11.8l-11.8-11.6L1944.6,1393.1z"/>
	<g class="st4">
	</g>
	<path class="st17" d="M2142.4,1375.3c5.4,1.4,9.5,5.1,12.4,11c2.9,5.9,4.4,12.9,4.4,21s-1.5,15.1-4.4,21c-2.9,5.9-7.1,9.6-12.4,11
		l-0.6-2.1c4.2-1.6,7.3-5,9.5-10.3c2.1-5.3,3.2-11.8,3.2-19.6c0-7.8-1.1-14.4-3.2-19.6c-2.1-5.3-5.3-8.7-9.5-10.3L2142.4,1375.3z
		 M1997.1,1375.3l0.7,2.1c-4.2,1.6-7.3,5-9.5,10.3c-2.2,5.3-3.2,11.8-3.2,19.6c0,7.8,1.1,14.3,3.2,19.6c2.1,5.3,5.3,8.7,9.5,10.3
		l-0.7,2.1c-5.4-1.4-9.5-5.1-12.4-11c-2.9-5.9-4.4-12.9-4.4-21s1.5-15.1,4.4-21C1987.6,1380.3,1991.8,1376.7,1997.1,1375.3z"/>
	<path class="st3" d="M2017.2,1389.1h1.6c0,0.9-0.1,1.8-0.1,2.5s0,1.5,0,2.2c0,0.7,0,1.4,0,2.1v19.7c0,0.5,0,1,0.1,1.4
		c0,0.4,0.1,0.7,0.2,1c0.1,0.3,0.2,0.5,0.3,0.7c0.1,0.2,0.3,0.3,0.4,0.5c0.2,0.2,0.5,0.4,0.8,0.5c0.3,0.1,0.8,0.2,1.3,0.3
		c0.5,0.1,1.2,0.1,1.9,0.2c0.8,0,1.6,0.1,2.7,0.1v2.2h-20.5v-2.2c1,0,1.9-0.1,2.6-0.1c0.7,0,1.3-0.1,1.8-0.2
		c0.5-0.1,0.9-0.2,1.2-0.3c0.3-0.1,0.6-0.2,0.8-0.3c0.2-0.2,0.4-0.3,0.6-0.5c0.2-0.2,0.3-0.4,0.4-0.7c0.1-0.3,0.2-0.6,0.2-1
		c0.1-0.4,0.1-0.9,0.1-1.5V1397c0-0.7-0.1-1.2-0.4-1.4c-0.2-0.3-0.6-0.4-1.1-0.4c-0.5,0-1.3,0.3-2.4,0.8c-1,0.6-2.4,1.4-4.1,2.5
		c-0.2-0.4-0.4-0.8-0.6-1.2c-0.2-0.4-0.4-0.8-0.6-1.2c2.1-1.2,4.2-2.3,6.3-3.5C2012.9,1391.4,2015,1390.2,2017.2,1389.1z"/>
	<g class="st4">
	</g>
	<path class="st3" d="M2047.8,1391.6h4.2v13.6h12.8v4H2052v13.6h-4.2v-13.6H2035v-4h12.8V1391.6z"/>
	<g class="st4">
	</g>
	<path class="st3" d="M2077.6,1388.8h8.9c0.8,2.2,1.6,4.3,2.5,6.5c0.8,2.2,1.7,4.4,2.5,6.5c0.8,2.2,1.6,4.3,2.4,6.4
		c0.8,2.1,1.5,4.2,2.1,6.2h0.3c0.2-1.1,0.4-2.4,0.7-3.9c0.3-1.5,0.6-3.1,1-4.7c0.3-1.2,0.6-2.5,0.9-3.8c0.3-1.3,0.6-2.5,0.8-3.7
		c0.2-1.2,0.5-2.3,0.6-3.3c0.2-1,0.2-1.8,0.2-2.5c0-0.8-0.2-1.3-0.6-1.6c-0.4-0.3-1.1-0.5-2.2-0.5l0.4-1.6h9.6l-0.3,1.6
		c-0.6,0.2-1.1,0.3-1.4,0.4c-0.3,0.1-0.6,0.4-0.9,0.8s-0.5,0.9-0.7,1.6c-0.2,0.7-0.5,1.7-0.8,3.1l-5.8,26.1h-3.9
		c-0.9-2.3-1.8-4.7-2.8-7.1c-1-2.4-1.9-4.8-2.8-7.1c-0.9-2.4-1.8-4.8-2.7-7.1c-0.8-2.3-1.6-4.7-2.3-6.9h-0.3
		c-0.1,0.5-0.2,1.2-0.3,1.9c-0.1,0.7-0.2,1.5-0.4,2.3c-0.1,0.8-0.3,1.7-0.5,2.5c-0.2,0.9-0.3,1.7-0.5,2.6c-0.2,0.7-0.3,1.4-0.6,2.3
		c-0.2,0.9-0.4,1.8-0.7,2.8c-0.2,1-0.5,2-0.7,3c-0.2,1-0.4,2-0.6,2.9c-0.2,0.9-0.3,1.8-0.5,2.5c-0.1,0.8-0.2,1.3-0.2,1.8
		c0,0.7,0.2,1.2,0.6,1.5c0.4,0.3,1.1,0.5,2.1,0.6l-0.3,1.6h-9.6l0.3-1.6c0.5-0.1,0.9-0.2,1.3-0.3c0.3-0.1,0.6-0.4,0.9-0.7
		s0.5-0.9,0.7-1.7c0.2-0.7,0.5-1.8,0.8-3.1l4.2-18.9c0.1-0.7,0.3-1.3,0.3-1.9c0.1-0.6,0.1-1.1,0.1-1.6c0-0.8-0.2-1.3-0.6-1.6
		c-0.4-0.3-1.1-0.5-2.2-0.5L2077.6,1388.8z"/>
	<path class="st3" d="M2124.6,1376.2c1.6,0,3,0.2,4.1,0.5c1.1,0.4,1.9,0.8,2.6,1.4c0.6,0.6,1.1,1.2,1.3,2c0.3,0.8,0.4,1.6,0.4,2.4
		c0,1-0.2,2-0.6,2.9c-0.4,0.9-1.1,1.8-2,2.9c-0.9,1-2.6,2.7-5.1,4.9c-2.6,2.4-4.5,4.4-5.7,6.1h7.8c0.7,0,1.3,0,1.7-0.1
		c0.4-0.1,0.7-0.2,0.9-0.3s0.4-0.3,0.6-0.6c0.2-0.2,0.4-0.7,0.7-1.5h2.2l-0.4,6.1h-18.4v-1.2c0.7-1.5,1.7-3,2.9-4.5
		c1.2-1.5,2.6-3,4.2-4.6c1.9-1.9,3.3-3.3,4.1-4.2c0.8-0.9,1.4-1.8,1.8-2.7c0.4-0.8,0.6-1.7,0.6-2.6c0-1.4-0.4-2.5-1.2-3.4
		c-0.8-0.8-2-1.2-3.5-1.2c-1.3,0-2.4,0.3-3.3,1c-0.9,0.7-1.6,1.7-2.1,3h-3v-4.2c1.9-0.8,3.6-1.3,5.1-1.6
		C2122,1376.4,2123.4,1376.2,2124.6,1376.2z"/>
	<g class="st4">
	</g>
	<path class="st3" d="M3426.4,1466.2l-12.7,22.5h13.9l-0.6-11.5c-0.1-1.6-0.1-3.5-0.2-5.9c0-2.3-0.1-4-0.1-5.1H3426.4z
		 M3377.9,1462.4c-1.5,0-3,0-4.6,0.1l-4.9,21.6h3.7c2.9,0,5.2-0.3,7-0.9c1.8-0.6,3.2-1.5,4.3-2.8c1.1-1.2,2-2.7,2.6-4.4
		c0.6-1.7,0.9-3.6,0.9-5.6c0-2.8-0.7-4.8-2.1-6.1C3383.5,1463.1,3381.2,1462.4,3377.9,1462.4z M3363,1459.3h15.7
		c2.8,0,5.2,0.2,7,0.7c1.8,0.4,3.3,1.1,4.5,2c1.2,0.9,2.1,2.1,2.6,3.5c0.6,1.4,0.9,3,0.9,4.9c0,3.6-0.8,6.7-2.5,9.3
		c-1.7,2.6-4,4.5-6.9,5.8c-2.9,1.2-6.4,1.9-10.4,1.9c-2.4,0-4.4,0-6.1-0.2l-2.3,10.5c-0.2,1-0.4,1.7-0.4,2.2
		c-0.1,0.5-0.2,1.1-0.2,1.7c-0.1,0.6-0.1,1.2-0.1,1.6c0,0.7,0.1,1.3,0.4,1.7c0.2,0.4,0.6,0.7,1.1,0.9c0.5,0.2,1.3,0.3,2.5,0.4
		l-0.4,1.8h-14.7l0.4-1.8c0.9-0.1,1.6-0.4,2-0.7c0.4-0.3,0.8-0.8,1.1-1.3c0.3-0.6,0.6-1.3,0.9-2.1c0.3-0.8,0.6-2.4,1.2-4.8l6.1-27.4
		c0.5-2.4,0.8-4.2,0.8-5.6c0-1.2-0.3-2-0.8-2.4c-0.6-0.5-1.4-0.7-2.7-0.8L3363,1459.3z M3426.6,1458.7h5.4l2.6,39.8
		c0.1,1.9,0.3,3.3,0.6,4.4c0.3,1.1,0.7,1.8,1.3,2.3c0.5,0.5,1.3,0.8,2.3,1l-0.4,1.8h-14.8l0.4-1.8c1.4-0.1,2.4-0.7,3.1-1.6
		c0.7-1,1-2.7,1-5.1c0-0.9,0-1.9-0.1-3l-0.2-4.6h-15.7l-2,3.5c-0.9,1.6-1.6,3-2,4.2c-0.4,1.2-0.6,2.2-0.6,3.1c0,2,1.2,3.2,3.6,3.6
		l-0.4,1.8h-14.6l0.4-1.8c0.7-0.1,1.4-0.4,2.1-0.9c0.6-0.5,1.3-1.2,2.1-2.2c0.7-1,1.8-2.6,3.1-4.9L3426.6,1458.7z"/>
	<path class="st3" d="M3683.5,1499c-1,0-2,0.2-2.8,0.7c-0.9,0.4-1.7,1-2.4,1.8c-0.7,0.8-1.4,1.7-1.9,2.7c-0.6,1-1.1,2.1-1.4,3.2
		c-0.4,1.2-0.7,2.3-0.9,3.5c-0.2,1.2-0.3,2.4-0.3,3.5c0,1.9,0.3,3.2,0.8,4.2c0.5,0.9,1.4,1.4,2.6,1.4c0.8,0,1.7-0.3,2.6-0.8
		c1-0.5,1.9-1.3,2.8-2.3c0.9-1,1.7-2.2,2.5-3.7c0.8-1.5,1.3-3.1,1.7-4.9c0.2-0.9,0.4-1.9,0.5-2.8c0.2-0.9,0.2-1.8,0.2-2.6
		c0-1.4-0.3-2.4-0.9-3C3685.9,1499.3,3684.9,1499,3683.5,1499z M3654.7,1499c-0.9,0-1.9,0.2-2.8,0.7c-0.9,0.5-1.8,1.1-2.6,2
		c-0.8,0.8-1.6,1.9-2.2,3.1c-0.7,1.2-1.2,2.6-1.7,4.1c2.2,0,4.1-0.2,5.7-0.5c1.6-0.3,2.9-0.8,3.9-1.3c1-0.6,1.8-1.2,2.2-2
		c0.5-0.8,0.7-1.6,0.7-2.6c0-1.1-0.3-1.9-0.8-2.5C3656.5,1499.3,3655.7,1499,3654.7,1499z M3558.5,1499c-1,0-2,0.2-2.9,0.7
		c-0.9,0.5-1.7,1.1-2.4,1.8c-0.7,0.8-1.4,1.7-1.9,2.7c-0.6,1-1,2.1-1.4,3.2c-0.4,1.1-0.7,2.3-0.9,3.5c-0.2,1.2-0.3,2.4-0.3,3.5
		c0,1.9,0.3,3.2,0.8,4.2c0.5,0.9,1.4,1.4,2.6,1.4c0.6,0,1.1-0.1,1.7-0.3c0.5-0.2,1.1-0.5,1.7-1c1.5-1.2,2.8-2.6,3.9-4.3
		c1.1-1.7,1.9-3.7,2.4-6.1c0.2-1.1,0.4-2,0.6-2.9c0.1-0.9,0.2-1.7,0.2-2.5c0-1.4-0.3-2.4-1-3C3560.9,1499.3,3559.9,1499,3558.5,1499
		z M3461.7,1499c-0.9,0-1.9,0.2-2.8,0.7c-0.9,0.5-1.8,1.1-2.6,2c-0.8,0.8-1.6,1.9-2.2,3.1c-0.7,1.2-1.2,2.6-1.7,4.1
		c2.2,0,4.1-0.2,5.7-0.5c1.6-0.3,2.9-0.8,3.9-1.3c1-0.6,1.8-1.2,2.2-2c0.5-0.8,0.7-1.6,0.7-2.6c0-1.1-0.3-1.9-0.8-2.5
		C3463.5,1499.3,3462.7,1499,3461.7,1499z M3655.8,1496.5c2.2,0,3.9,0.5,5,1.5c1.1,1,1.7,2.3,1.7,4.1c0,6.2-5.9,9.4-17.7,9.4
		c-0.1,0.4-0.2,0.9-0.2,1.5c0,0.5-0.1,1.1-0.1,1.7c0,1.9,0.4,3.3,1.1,4.1c0.8,0.9,2,1.3,3.6,1.3c0.8,0,1.6-0.1,2.4-0.3
		c0.8-0.2,1.5-0.5,2.2-0.8c0.7-0.4,1.5-0.9,2.2-1.5c0.7-0.6,1.5-1.3,2.3-2.1l1.9,2.1c-2,2-4,3.5-6,4.5c-2,1-4.1,1.5-6.4,1.5
		c-1.3,0-2.5-0.2-3.6-0.6c-1-0.4-1.9-1-2.6-1.8c-0.7-0.8-1.3-1.7-1.6-2.8c-0.4-1.1-0.6-2.4-0.6-3.8c0-1,0.1-2,0.3-3.1
		c0.2-1.1,0.4-2.1,0.8-3.2c0.4-1.1,0.8-2.1,1.4-3.1c0.5-1,1.2-2,1.9-2.8c1.5-1.8,3.2-3.2,5.2-4.2
		C3651.2,1497,3653.4,1496.5,3655.8,1496.5z M3628.4,1496.5c1.3,0,2.4,0.1,3.5,0.2c1.1,0.1,2.2,0.4,3.4,0.6l-1.4,6.3h-3.1
		c0-0.9-0.1-1.6-0.2-2.2c-0.1-0.6-0.3-1.1-0.5-1.4c-0.2-0.3-0.6-0.6-1-0.7c-0.4-0.2-0.9-0.2-1.5-0.2c-0.9,0-1.8,0.2-2.7,0.6
		c-0.9,0.4-1.6,1-2.4,1.7c-0.7,0.7-1.4,1.6-2,2.6c-0.6,1-1.1,2-1.6,3.2s-0.8,2.3-1,3.6c-0.2,1.2-0.3,2.5-0.3,3.7
		c0,1.8,0.4,3.2,1.1,4.2c0.7,1,1.8,1.4,3.3,1.4c0.8,0,1.6-0.1,2.2-0.2c0.7-0.1,1.4-0.4,2-0.7c0.7-0.4,1.3-0.8,2-1.4
		c0.7-0.6,1.5-1.3,2.3-2.1c0.3,0.3,0.6,0.7,0.9,1c0.3,0.3,0.6,0.7,0.9,1c-1.9,1.9-3.7,3.4-5.6,4.3c-1.9,0.9-3.9,1.4-6,1.4
		c-2.7,0-4.7-0.8-6.1-2.3c-1.4-1.6-2.1-3.8-2.1-6.7c0-1.6,0.2-3.2,0.5-4.7c0.4-1.5,0.9-2.9,1.6-4.3c0.7-1.3,1.5-2.5,2.4-3.6
		c1-1.1,2-2,3.2-2.8c1.2-0.8,2.4-1.4,3.8-1.8C3625.5,1496.7,3626.9,1496.5,3628.4,1496.5z M3583.7,1496.5c1.3,0,2.3,0.4,3,1.2
		c0.7,0.8,1.1,1.9,1.1,3.3c0,0.3,0,0.7-0.1,1.1c-0.1,0.4-0.2,0.7-0.3,1.1l0.4,0.1c1.7-2.3,3.3-4,5-5.2c1.6-1.1,3.3-1.7,5.1-1.7
		c1.8,0,3.2,0.5,4.1,1.5c0.9,1,1.4,2.4,1.4,4.1c0,0.5-0.1,1.3-0.2,2.2c-0.1,1-0.3,2-0.6,3.1c-0.2,1.1-0.5,2.3-0.8,3.4
		s-0.5,2.3-0.8,3.3c-0.2,1-0.4,1.9-0.6,2.6c-0.2,0.7-0.2,1.1-0.2,1.3c0,0.6,0.1,1.1,0.4,1.4c0.2,0.3,0.6,0.4,1.2,0.4
		c0.3,0,0.7-0.1,1-0.2c0.3-0.1,0.7-0.3,1-0.6c0.4-0.3,0.7-0.6,1.1-1c0.4-0.4,0.9-0.9,1.4-1.5l1.8,1.7c-0.8,0.9-1.6,1.6-2.3,2.2
		c-0.7,0.6-1.4,1.1-2,1.5c-0.7,0.4-1.3,0.7-2,0.9c-0.7,0.2-1.4,0.3-2.1,0.3c-0.6,0-1.2-0.1-1.7-0.4c-0.5-0.2-1-0.6-1.4-1
		c-0.4-0.4-0.7-0.9-0.9-1.5s-0.3-1.2-0.3-1.9c0-0.7,0.1-1.5,0.2-2.4c0.2-0.9,0.4-1.9,0.7-3c0.3-1.1,0.6-2.2,0.9-3.2
		c0.3-1,0.5-2,0.7-2.8c0.2-0.9,0.4-1.6,0.5-2.3c0.1-0.7,0.2-1.2,0.2-1.7c0-1.1-0.2-1.9-0.6-2.4c-0.4-0.5-1.1-0.8-1.9-0.8
		c-0.5,0-1.1,0.1-1.7,0.4c-0.6,0.3-1.2,0.6-1.8,1.1c-0.6,0.5-1.2,1-1.8,1.7c-0.6,0.7-1.1,1.3-1.6,2.1c-0.5,0.7-0.9,1.5-1.3,2.3
		c-0.4,0.8-0.6,1.6-0.8,2.4l-2.9,13h-5.1l3.9-16.9c0.2-0.9,0.4-1.7,0.5-2.4c0.1-0.7,0.2-1.3,0.2-1.7c0-1.3-0.5-1.9-1.5-1.9
		c-0.3,0-0.6,0.1-0.9,0.2c-0.3,0.1-0.7,0.3-1,0.6c-0.4,0.2-0.7,0.6-1.2,1c-0.4,0.4-0.9,0.9-1.4,1.4l-1.8-1.7
		c0.9-0.9,1.6-1.6,2.4-2.3s1.4-1.1,2-1.5c0.6-0.4,1.3-0.7,1.9-0.9C3582.3,1496.6,3583,1496.5,3583.7,1496.5z M3558.1,1496.5
		c1.4,0,2.6,0.2,3.6,0.5c1,0.3,2,0.8,2.9,1.3l2.5-1.8l2.1,0.5l-3.9,16.9c-0.2,1-0.4,1.8-0.5,2.4c-0.1,0.6-0.1,1.2-0.1,1.7
		c0,0.6,0.1,1.1,0.4,1.4c0.3,0.3,0.7,0.4,1.2,0.4c0.3,0,0.6-0.1,0.9-0.2c0.3-0.1,0.6-0.3,1-0.6c0.3-0.3,0.7-0.6,1.2-1
		c0.4-0.4,0.9-0.9,1.4-1.5c0.3,0.3,0.6,0.6,0.9,0.9c0.3,0.3,0.6,0.6,0.9,0.8c-0.9,0.9-1.6,1.6-2.4,2.3s-1.4,1.2-2.1,1.6
		c-0.7,0.4-1.3,0.7-1.9,0.9c-0.6,0.2-1.3,0.3-2,0.3c-1.2,0-2.2-0.4-2.9-1.2c-0.7-0.8-1-1.9-1-3.3c0-0.8,0.1-1.5,0.4-2.2l-0.4-0.2
		c-0.9,1.2-1.7,2.3-2.6,3.1c-0.8,0.9-1.7,1.6-2.5,2.1c-0.8,0.6-1.6,1-2.5,1.2c-0.8,0.3-1.7,0.4-2.6,0.4c-2.1,0-3.6-0.7-4.8-2.2
		c-1.1-1.5-1.7-3.6-1.7-6.4c0-1.7,0.2-3.3,0.5-4.8c0.4-1.6,0.9-3,1.5-4.3c0.6-1.4,1.4-2.6,2.3-3.7c0.9-1.1,1.9-2.1,2.9-2.9
		c1.1-0.8,2.2-1.4,3.4-1.8C3555.5,1496.7,3556.8,1496.5,3558.1,1496.5z M3481.7,1496.5c1.3,0,2.3,0.4,3,1.2c0.7,0.8,1.1,1.9,1.1,3.3
		c0,0.3,0,0.7-0.1,1.1c-0.1,0.4-0.2,0.7-0.3,1.1l0.4,0.1c1.7-2.3,3.3-4,5-5.2c1.6-1.1,3.3-1.7,5.1-1.7c1.8,0,3.2,0.5,4.1,1.5
		c0.9,1,1.4,2.4,1.4,4.1c0,0.5-0.1,1.3-0.2,2.2c-0.1,1-0.3,2-0.6,3.1c-0.2,1.1-0.5,2.3-0.8,3.4s-0.5,2.3-0.8,3.3
		c-0.2,1-0.4,1.9-0.6,2.6c-0.2,0.7-0.2,1.1-0.2,1.3c0,0.6,0.1,1.1,0.4,1.4c0.2,0.3,0.6,0.4,1.2,0.4c0.3,0,0.7-0.1,1-0.2
		c0.3-0.1,0.7-0.3,1-0.6c0.4-0.3,0.7-0.6,1.1-1c0.4-0.4,0.9-0.9,1.4-1.5l1.8,1.7c-0.8,0.9-1.6,1.6-2.3,2.2c-0.7,0.6-1.4,1.1-2,1.5
		c-0.7,0.4-1.3,0.7-2,0.9c-0.7,0.2-1.4,0.3-2.1,0.3c-0.6,0-1.2-0.1-1.7-0.4c-0.5-0.2-1-0.6-1.4-1c-0.4-0.4-0.7-0.9-0.9-1.5
		s-0.3-1.2-0.3-1.9c0-0.7,0.1-1.5,0.2-2.4c0.2-0.9,0.4-1.9,0.7-3c0.3-1.1,0.6-2.2,0.9-3.2c0.3-1,0.5-2,0.7-2.8
		c0.2-0.9,0.4-1.6,0.5-2.3c0.1-0.7,0.2-1.2,0.2-1.7c0-1.1-0.2-1.9-0.6-2.4c-0.4-0.5-1.1-0.8-1.9-0.8c-0.5,0-1.1,0.1-1.7,0.4
		c-0.6,0.3-1.2,0.6-1.8,1.1c-0.6,0.5-1.2,1-1.8,1.7c-0.6,0.7-1.1,1.3-1.6,2.1c-0.5,0.7-0.9,1.5-1.3,2.3c-0.4,0.8-0.6,1.6-0.8,2.4
		l-2.9,13h-5.1l3.9-16.9c0.2-0.9,0.4-1.7,0.5-2.4c0.1-0.7,0.2-1.3,0.2-1.7c0-1.3-0.5-1.9-1.5-1.9c-0.3,0-0.6,0.1-0.9,0.2
		c-0.3,0.1-0.7,0.3-1,0.6c-0.4,0.2-0.7,0.6-1.2,1c-0.4,0.4-0.9,0.9-1.4,1.4l-1.8-1.7c0.9-0.9,1.6-1.6,2.4-2.3s1.4-1.1,2-1.5
		c0.6-0.4,1.3-0.7,1.9-0.9C3480.3,1496.6,3481,1496.5,3481.7,1496.5z M3462.8,1496.5c2.2,0,3.9,0.5,5,1.5c1.1,1,1.7,2.3,1.7,4.1
		c0,6.2-5.9,9.4-17.7,9.4c-0.1,0.4-0.2,0.9-0.2,1.5c0,0.5-0.1,1.1-0.1,1.7c0,1.9,0.4,3.3,1.1,4.1c0.8,0.9,2,1.3,3.6,1.3
		c0.8,0,1.6-0.1,2.4-0.3c0.8-0.2,1.5-0.5,2.2-0.8c0.7-0.4,1.5-0.9,2.2-1.5c0.7-0.6,1.5-1.3,2.3-2.1l1.9,2.1c-2,2-4,3.5-6,4.5
		c-2,1-4.1,1.5-6.4,1.5c-1.3,0-2.5-0.2-3.6-0.6c-1-0.4-1.9-1-2.6-1.8c-0.7-0.8-1.3-1.7-1.6-2.8c-0.4-1.1-0.6-2.4-0.6-3.8
		c0-1,0.1-2,0.3-3.1c0.2-1.1,0.4-2.1,0.8-3.2c0.4-1.1,0.8-2.1,1.4-3.1c0.5-1,1.2-2,1.9-2.8c1.5-1.8,3.2-3.2,5.2-4.2
		C3458.2,1497,3460.4,1496.5,3462.8,1496.5z M3694.9,1487.6h1.3l-6,26.4c-0.2,1-0.4,1.8-0.5,2.4c-0.1,0.6-0.1,1.1-0.1,1.6
		c0,0.6,0.1,1.1,0.4,1.4c0.3,0.3,0.7,0.4,1.2,0.4c0.3,0,0.6-0.1,0.9-0.2c0.3-0.1,0.6-0.3,1-0.6c0.3-0.3,0.7-0.6,1.2-1
		c0.4-0.4,0.9-0.9,1.4-1.5c0.3,0.3,0.6,0.6,0.9,0.9c0.3,0.3,0.6,0.6,0.9,0.8c-0.9,0.9-1.6,1.6-2.4,2.3s-1.4,1.2-2.1,1.6
		c-0.7,0.4-1.3,0.7-1.9,0.9c-0.6,0.2-1.3,0.3-2,0.3c-1.2,0-2.2-0.4-2.9-1.2c-0.7-0.8-1-1.9-1-3.3c0-0.8,0.1-1.5,0.4-2.2l-0.4-0.2
		c-0.9,1.2-1.7,2.3-2.6,3.1c-0.8,0.9-1.7,1.6-2.5,2.1c-0.8,0.6-1.6,1-2.5,1.2c-0.8,0.3-1.7,0.4-2.6,0.4c-2.1,0-3.6-0.7-4.8-2.2
		c-1.1-1.5-1.7-3.6-1.7-6.4c0-1.7,0.2-3.3,0.5-4.8c0.4-1.6,0.9-3,1.5-4.3c0.6-1.4,1.4-2.6,2.3-3.7c0.9-1.1,1.9-2.1,2.9-2.9
		c1.1-0.8,2.2-1.4,3.4-1.8c1.2-0.4,2.5-0.7,3.8-0.7c1.1,0,2.2,0.1,3.1,0.3c0.9,0.2,1.9,0.7,2.7,1.3c0.3-1.1,0.5-2,0.7-2.8
		c0.2-0.8,0.3-1.5,0.4-2.1c0.1-0.7,0.2-1.2,0.2-1.6c0-0.4-0.1-0.7-0.1-0.9c-0.1-0.2-0.3-0.4-0.5-0.6c-0.2-0.2-0.6-0.3-1-0.3
		c-0.4-0.1-1-0.1-1.7-0.2l0.3-1.8L3694.9,1487.6z M3521.2,1487.6h1.9l-3.5,14.6l0.4,0.1c0.8-1,1.7-1.9,2.5-2.6
		c0.8-0.7,1.6-1.3,2.3-1.8c0.8-0.5,1.5-0.8,2.2-1c0.7-0.2,1.5-0.3,2.2-0.3c1.9,0,3.2,0.5,4.2,1.5c0.9,1,1.4,2.4,1.4,4.1
		c0,0.5-0.1,1.2-0.2,2c-0.1,0.8-0.3,1.7-0.5,2.7l-1.8,7.2c-0.2,0.7-0.3,1.2-0.4,1.6c-0.1,0.4-0.2,0.8-0.2,1.1
		c-0.1,0.3-0.1,0.5-0.1,0.8s0,0.4,0,0.7c0,0.6,0.1,1.1,0.4,1.4c0.2,0.3,0.6,0.4,1.2,0.4c0.3,0,0.6-0.1,0.9-0.2
		c0.3-0.1,0.6-0.3,1-0.6c0.3-0.3,0.7-0.6,1.2-1c0.4-0.4,0.9-0.9,1.4-1.5c0.3,0.3,0.6,0.6,0.9,0.9c0.3,0.3,0.6,0.6,0.9,0.8
		c-0.9,0.9-1.7,1.7-2.4,2.3c-0.7,0.6-1.4,1.1-2.1,1.5c-0.6,0.4-1.3,0.7-1.9,0.9c-0.6,0.2-1.3,0.3-2,0.3c-0.6,0-1.2-0.1-1.7-0.4
		c-0.5-0.2-1-0.6-1.4-1c-0.4-0.4-0.7-0.9-0.9-1.5c-0.2-0.6-0.3-1.2-0.3-1.9c0-0.7,0.1-1.5,0.2-2.4c0.2-0.9,0.3-1.8,0.6-2.8
		c0.2-1,0.5-2,0.7-3c0.3-1,0.5-2,0.7-2.8c0.2-0.9,0.4-1.7,0.6-2.4c0.1-0.7,0.2-1.3,0.2-1.7c0-0.5,0-0.9-0.1-1.4
		c-0.1-0.4-0.2-0.8-0.4-1.1c-0.2-0.3-0.5-0.6-0.8-0.8c-0.3-0.2-0.8-0.3-1.3-0.3c-0.8,0-1.7,0.3-2.7,1c-1,0.6-1.9,1.5-2.8,2.5
		c-0.9,1-1.6,2.2-2.3,3.4c-0.7,1.3-1.1,2.5-1.4,3.8c-0.4,2.1-0.9,4.1-1.3,6.2c-0.4,2.1-0.8,4.1-1.3,6.2h-5l6.1-27.8
		c0.2-0.9,0.3-1.6,0.4-2.2c0.1-0.5,0.1-1,0.1-1.4c0-0.3-0.1-0.6-0.2-0.9c-0.1-0.2-0.3-0.4-0.5-0.6s-0.6-0.2-1-0.3
		c-0.4-0.1-1-0.1-1.6-0.1l0.4-1.8L3521.2,1487.6z"/>
	<path class="st3" d="M3750.1,1465.9h14.6v5h-14.6c-2.4,0-4.3,0.1-5.7,0.4c-1.5,0.3-2.7,0.7-3.7,1.3c-1,0.6-1.9,1.4-2.7,2.5
		c-0.8,1.1-1.4,2.4-1.9,3.9c-0.4,1.6-0.7,3.3-0.8,5.3h29.4v4.9h-29.4c0.1,2.2,0.4,4.2,1,5.9c0.5,1.7,1.3,3.2,2.4,4.4
		c1.1,1.2,2.4,2.1,4.1,2.7c1.7,0.6,4,0.8,6.9,0.8h15.1v5h-15.2c-2.3,0-4.4-0.1-6.1-0.4c-1.7-0.3-3.2-0.8-4.6-1.4
		c-1.4-0.6-2.7-1.6-3.9-2.9c-1.2-1.3-2.2-2.7-3-4.3c-0.8-1.6-1.3-3.3-1.7-5.3c-0.4-2-0.6-4.1-0.6-6.4c0-3.8,0.4-6.9,1.1-9.3
		c0.7-2.5,2-4.6,3.7-6.6c1.7-1.9,3.8-3.3,6.2-4.1C3743.1,1466.4,3746.3,1465.9,3750.1,1465.9z"/>
	<g class="st4">
	</g>
	<path class="st3" d="M3816.4,1462.4c-1.3,0-2.6,0-4,0.1l-4.6,20.6h4.2c3.4,0,6.2-0.5,8.2-1.4c2-0.9,3.6-2.5,4.7-4.6
		c1.2-2.1,1.7-4.4,1.7-6.8c0-1-0.1-1.9-0.3-2.7c-0.2-0.8-0.4-1.5-0.8-2c-0.3-0.5-0.7-1-1.2-1.4c-0.5-0.4-1.1-0.8-1.8-1.1
		c-0.7-0.3-1.5-0.5-2.5-0.7C3819.2,1462.5,3818,1462.4,3816.4,1462.4z M3802.1,1459.3h15.9c2.5,0,4.6,0.2,6.2,0.4
		c1.6,0.3,2.9,0.7,4.1,1.3c1.1,0.6,2.1,1.4,2.8,2.3c0.8,0.9,1.3,2,1.7,3.2c0.4,1.2,0.6,2.4,0.6,3.8c0,3.7-1.1,6.8-3.4,9.3
		c-2.2,2.6-5.5,4.5-9.9,5.8v0.4c1.1,0.9,2.1,1.9,2.8,3.1c0.7,1.2,1.3,2.8,1.7,5l0.8,4.1c0.3,1.3,0.6,2.5,0.9,3.5
		c0.3,1,0.7,1.9,1.2,2.5s1,1.1,1.6,1.4c0.6,0.3,1.4,0.6,2.6,0.8l-0.4,1.8h-9.9c-0.8-2.1-1.4-4.6-2-7.6l-1.6-7.6
		c-0.3-1.3-0.6-2.4-0.9-3.3c-0.4-0.9-0.8-1.6-1.3-2.1s-1.1-0.8-1.8-1c-0.7-0.2-1.5-0.2-2.5-0.2h-4.1l-2.5,11.3
		c-0.2,0.9-0.4,1.7-0.4,2.2c-0.1,0.5-0.2,1.1-0.2,1.7c-0.1,0.6-0.1,1.2-0.1,1.6c0,0.7,0.1,1.3,0.4,1.7c0.2,0.4,0.6,0.7,1.1,0.9
		c0.5,0.2,1.3,0.3,2.5,0.4l-0.4,1.8h-14.7l0.4-1.8c0.9-0.1,1.6-0.4,2-0.7c0.5-0.3,0.8-0.8,1.1-1.3c0.3-0.6,0.6-1.3,0.9-2.1
		c0.3-0.8,0.7-2.4,1.2-4.8l6.1-27.4c0.5-2.4,0.8-4.2,0.8-5.6c0-1.2-0.3-2-0.8-2.4c-0.6-0.5-1.4-0.7-2.7-0.8L3802.1,1459.3z"/>
	<path class="st3" d="M3847.9,1447.5h8.9c0.8,2.2,1.6,4.3,2.5,6.5c0.9,2.2,1.7,4.4,2.5,6.5c0.8,2.2,1.6,4.3,2.4,6.4
		c0.8,2.1,1.5,4.2,2.1,6.2h0.3c0.2-1.1,0.4-2.4,0.7-3.9c0.3-1.5,0.6-3.1,1-4.7c0.3-1.2,0.6-2.5,0.9-3.8c0.3-1.3,0.6-2.5,0.8-3.7
		c0.3-1.2,0.5-2.3,0.6-3.3c0.2-1,0.2-1.8,0.2-2.5c0-0.8-0.2-1.3-0.6-1.6c-0.4-0.3-1.1-0.5-2.2-0.5l0.4-1.6h9.6l-0.3,1.6
		c-0.6,0.2-1,0.3-1.4,0.5c-0.4,0.1-0.6,0.4-0.9,0.8s-0.5,0.9-0.7,1.6c-0.2,0.7-0.5,1.7-0.8,3l-5.8,26.1h-3.9
		c-0.9-2.3-1.8-4.7-2.8-7.1c-1-2.4-1.9-4.8-2.8-7.1c-0.9-2.4-1.8-4.8-2.7-7.1c-0.8-2.3-1.6-4.7-2.3-6.9h-0.3
		c-0.1,0.5-0.2,1.2-0.3,1.9c-0.1,0.7-0.2,1.5-0.4,2.3c-0.2,0.8-0.3,1.7-0.5,2.5c-0.2,0.9-0.3,1.7-0.5,2.6c-0.2,0.7-0.3,1.4-0.6,2.3
		c-0.2,0.9-0.4,1.8-0.7,2.8c-0.2,1-0.5,2-0.7,3c-0.2,1-0.4,2-0.6,2.9c-0.2,0.9-0.3,1.8-0.4,2.5c-0.1,0.8-0.2,1.3-0.2,1.8
		c0,0.7,0.2,1.2,0.6,1.5c0.4,0.3,1.1,0.5,2.1,0.6l-0.3,1.6h-9.6l0.3-1.6c0.5-0.1,0.9-0.2,1.3-0.3c0.3-0.1,0.6-0.4,0.9-0.7
		s0.5-0.9,0.7-1.7s0.5-1.8,0.8-3.1l4.2-18.9c0.2-0.7,0.3-1.3,0.3-1.9c0.1-0.6,0.1-1.1,0.1-1.6c0-0.8-0.2-1.3-0.6-1.6
		c-0.4-0.3-1.1-0.5-2.2-0.5L3847.9,1447.5z"/>
	<path class="st3" d="M3894.8,1434.9c1.6,0,3,0.2,4.1,0.5c1.1,0.4,1.9,0.8,2.6,1.4c0.6,0.6,1.1,1.2,1.4,2c0.3,0.8,0.4,1.6,0.4,2.4
		c0,1-0.2,2-0.6,2.9c-0.4,0.9-1.1,1.8-2,2.9c-1,1-2.6,2.7-5.1,4.9c-2.6,2.3-4.5,4.4-5.7,6.1h7.8c0.7,0,1.3,0,1.7-0.1
		c0.4-0.1,0.7-0.2,0.9-0.3c0.2-0.2,0.4-0.3,0.6-0.6c0.2-0.2,0.4-0.7,0.7-1.5h2.2l-0.4,6.1h-18.4v-1.2c0.7-1.5,1.7-3,2.9-4.5
		c1.2-1.5,2.6-3,4.3-4.6c1.9-1.9,3.3-3.3,4.1-4.2c0.8-1,1.4-1.8,1.8-2.7c0.4-0.8,0.6-1.7,0.6-2.6c0-1.4-0.4-2.5-1.2-3.4
		c-0.8-0.8-2-1.2-3.5-1.2c-1.3,0-2.4,0.3-3.3,1c-0.9,0.7-1.6,1.7-2.1,3.1h-3v-4.2c1.9-0.8,3.6-1.3,5.1-1.6
		C3892.2,1435.1,3893.6,1434.9,3894.8,1434.9z"/>
	<g class="st4">
	</g>
	<path class="st3" d="M3917.6,1451.8l11.7,11.7l11.7-11.7l2.4,2.4l-11.6,11.8l11.6,11.7l-2.6,2.6l-11.6-11.8l-12,11.7l-2.4-2.4
		l11.8-11.8l-11.8-11.6L3917.6,1451.8z"/>
	<g class="st4">
	</g>
	<path class="st3" d="M3956.8,1447.5h8.9c0.8,2.2,1.6,4.3,2.5,6.5c0.9,2.2,1.7,4.4,2.5,6.5c0.8,2.2,1.6,4.3,2.4,6.4
		c0.8,2.1,1.5,4.2,2.1,6.2h0.3c0.2-1.1,0.4-2.4,0.7-3.9c0.3-1.5,0.6-3.1,1-4.7c0.3-1.2,0.6-2.5,0.9-3.8c0.3-1.3,0.6-2.5,0.8-3.7
		c0.3-1.2,0.5-2.3,0.6-3.3c0.2-1,0.2-1.8,0.2-2.5c0-0.8-0.2-1.3-0.6-1.6c-0.4-0.3-1.1-0.5-2.2-0.5l0.4-1.6h9.6l-0.3,1.6
		c-0.6,0.2-1.1,0.3-1.4,0.5c-0.3,0.1-0.6,0.4-0.9,0.8s-0.5,0.9-0.7,1.6c-0.2,0.7-0.5,1.7-0.8,3l-5.9,26.1h-3.9
		c-0.9-2.3-1.9-4.7-2.8-7.1c-0.9-2.4-1.9-4.8-2.8-7.1c-0.9-2.4-1.8-4.8-2.6-7.1c-0.9-2.3-1.6-4.7-2.3-6.9h-0.3
		c-0.1,0.5-0.2,1.2-0.3,1.9c-0.1,0.7-0.2,1.5-0.4,2.3c-0.1,0.8-0.3,1.7-0.5,2.5c-0.2,0.9-0.3,1.7-0.5,2.6c-0.2,0.7-0.3,1.4-0.6,2.3
		c-0.2,0.9-0.4,1.8-0.7,2.8c-0.2,1-0.4,2-0.7,3c-0.2,1-0.5,2-0.6,2.9c-0.2,0.9-0.3,1.8-0.4,2.5s-0.2,1.3-0.2,1.8
		c0,0.7,0.2,1.2,0.6,1.5c0.4,0.3,1.1,0.5,2.1,0.6l-0.3,1.6h-9.7l0.3-1.6c0.5-0.1,0.9-0.2,1.3-0.3c0.3-0.1,0.6-0.4,0.9-0.7
		s0.5-0.9,0.7-1.7s0.5-1.8,0.8-3.1l4.2-18.9c0.2-0.7,0.3-1.3,0.4-1.9c0.1-0.6,0.1-1.1,0.1-1.6c0-0.8-0.2-1.3-0.6-1.6
		c-0.4-0.3-1.1-0.5-2.2-0.5L3956.8,1447.5z"/>
	<path class="st3" d="M4003.7,1434.9c1.6,0,3,0.2,4.1,0.5c1.1,0.4,1.9,0.8,2.6,1.4c0.7,0.6,1.1,1.2,1.4,2c0.2,0.8,0.4,1.6,0.4,2.4
		c0,1-0.2,2-0.6,2.9c-0.4,0.9-1.1,1.8-2,2.9s-2.6,2.7-5.1,4.9c-2.6,2.3-4.5,4.4-5.6,6.1h7.8c0.7,0,1.3,0,1.7-0.1
		c0.4-0.1,0.7-0.2,0.9-0.3c0.2-0.2,0.4-0.3,0.6-0.6c0.2-0.2,0.4-0.7,0.7-1.5h2.2l-0.5,6.1h-18.4v-1.2c0.7-1.5,1.7-3,2.9-4.5
		c1.2-1.5,2.6-3,4.3-4.6c1.9-1.9,3.3-3.3,4.1-4.2c0.8-1,1.4-1.8,1.8-2.7c0.4-0.8,0.6-1.7,0.6-2.6c0-1.4-0.4-2.5-1.2-3.4
		c-0.8-0.8-2-1.2-3.5-1.2c-1.3,0-2.4,0.3-3.3,1c-0.9,0.7-1.6,1.7-2.1,3.1h-3v-4.2c1.9-0.8,3.6-1.3,5.1-1.6
		C4001.1,1435.1,4002.5,1434.9,4003.7,1434.9z"/>
	<g class="st4">
	</g>
	<g>
		<defs>
			<rect id="SVGID_1_" x="3399" y="821" width="453" height="452"/>
		</defs>
		<clipPath id="SVGID_00000015320895667849953330000017043368719529459104_">
			<use xlink:href="#SVGID_1_"  style="overflow:visible;"/>
		</clipPath>
		
			<g transform="matrix(0.000360892 0 0 0.000360892 3399 822)" style="clip-path:url(#SVGID_00000015320895667849953330000017043368719529459104_);">
			<g>
				<defs>
					<rect id="SVGID_00000069388818144998237220000011637892753784317630_" x="3399" y="822" width="452" height="451"/>
				</defs>
				<clipPath id="SVGID_00000119839477795027150020000016177405650499401371_">
					<use xlink:href="#SVGID_00000069388818144998237220000011637892753784317630_"  style="overflow:visible;"/>
				</clipPath>
				
					<g transform="matrix(1 0 0 1.00048 -0.528076 -0.193226)" style="clip-path:url(#SVGID_00000119839477795027150020000016177405650499401371_);">
					<g transform="scale(3375.88 3375.88)">
						
							<image style="overflow:visible;enable-background:new    ;" width="371" height="370" id="img1" xlink:href="500CC29.jpeg"  transform="matrix(1.2183 0 0 1.2183 3399.5278 821.7987)">
						</image>
					</g>
				</g>
			</g>
		</g>
	</g>
	<path class="st20" d="M3399.9,822.3C3399.9,822.3,3399.9,822.3,3399.9,822.3l0.1,0c0,0,0,0,0,0v0.1c0,0,0,0,0,0h-0.1c0,0,0,0,0,0
		V822.3z"/>
	<path class="st11" d="M3400.1,822.4h0.1v0L3400.1,822.4L3400.1,822.4z M3400.2,822.4L3400.2,822.4L3400.2,822.4L3400.2,822.4z"/>
	<text transform="matrix(3.610000e-04 0 0 3.610000e-04 3399.1819 822.4783)" class="st12 st13">增强注意力图</text>
	<text transform="matrix(3.610000e-04 0 0 3.610000e-04 3399.522 822.4808)" class="st12 st13">融合增强注意力图</text>
	<text transform="matrix(3.610000e-04 0 0 3.610000e-04 3400.1938 822.5029)" class="st12 st13">增强补丁语义亲和力</text>
	<text transform="matrix(3.610000e-04 0 0 3.610000e-04 3399.8594 822.5195)" class="st12 st13">除去类令牌对应维度</text>
</g>
</svg>
